<svg xmlns="http://www.w3.org/2000/svg" xmlns:xlink="http://www.w3.org/1999/xlink" width="795" height="446"><style><![CDATA[.B{fill:#000}.C{fill:#fff}.D{fill:#ecf4f7}.E{fill:#51565f}.F{fill:#9bc9ff}.G{fill:#ff9052}.H{fill:#57a4ff}.I{fill:#ffe079}.J{fill:#ff7474}.K{fill:#fea82f}.L{fill:#4dbbeb}.M{fill:#2488ff}.N{fill:#ba6746}.O{fill:#fea3a2}.P{fill:#aab1ba}]]></style><g fill="none" fill-rule="evenodd"><path d="M691.4 32.6s1.467-5.72 8.166-4.75c8.548 1.24 20.825 5.5 16.334 28.5-2.663 13.63-6.534 19.66-4.9 20.58s32.667 0 32.667 0 7.894 3.56 4.9 9.5-1.634 7.9-1.634 7.9 6.67 3.3 6.533 7.92-6.533 9.5-6.533 9.5 3.13 1.98 1.634 7.9a18.41 18.41 0 0 1-6.534 9.5s6.4 3.96 3.267 9.5-6.534 6.33-6.534 6.33l-35.933-1.58s-5.74-.62-9.8-3.17a38.41 38.41 0 0 1-17.967-34.82c1.5-26 10.925-42.14 14.7-49.08 3.158-5.8 2.83-5.85 1.634-14.24-.942-6.6 0-9.5 0-9.5z" fill="#f29e4e"/><path d="M697.933 27.86s1.467-5.72 8.167-4.75c8.547 1.24 20.825 5.5 16.333 28.5-2.663 13.63-6.533 19.66-4.9 20.58s32.667 0 32.667 0 7.894 3.56 4.9 9.5-1.634 7.92-1.634 7.92 6.67 3.3 6.534 7.9-6.534 9.5-6.534 9.5 3.13 1.98 1.634 7.9c-1.104 3.785-3.394 7.115-6.533 9.5 0 0 6.4 3.96 3.266 9.5s-6.533 6.33-6.533 6.33l-35.934-1.58s-5.74-.62-9.8-3.17a38.41 38.41 0 0 1-17.966-34.82c1.5-26 10.925-42.14 14.7-49.08 3.157-5.8 2.83-5.85 1.633-14.24-.942-6.6 0-9.5 0-9.5z" fill="#ffde67"/><path d="M719.172 89.58h-.548s-4.726.04-5.445-.1c-1.104.615-2.035 1.5-2.707 2.57-2.644 4.03 0 9.56 2.06 12.8h42.877l-5.255 5.1h-35.3c-.633.43-1.144 1.016-1.486 1.7-2.45 6.1.44 8.2 2.272 10.12l2.983.05 32.91-.07-5.625 4.93-25.533.23c-3.5 5.3 3.5 13.57 3.5 13.57s-1.533 1.48-5.255 0-7.007-6.36-3.5-13.57a6.92 6.92 0 0 1 .764-1.23 6.33 6.33 0 0 1-4.268-.47c-3.722-1.48-7.006-6.35-3.5-13.56.4-.85 1.01-1.597 1.752-2.18v-1.57c-.468-.082-.928-.206-1.374-.37-4.21-1.7-7.923-7.25-3.962-15.46a7.12 7.12 0 0 1 6.355-4.1c-2.407-2.3-3.69-6.44-1.02-11.94 2.267-4.66 7.638-3.9 11.037-2.86-1.742-.3-3.937.07-5.782 2.86-1.7 2.57-.915 5.8.325 8.48h38.2l-.36 5.15-33.968-.06c1.147.56 1.31.6-.157 0zm1.73-16.43a9.25 9.25 0 0 1 2.976 1.16 22.48 22.48 0 0 0-2.979-1.16h.003z" fill="#f29e4e"/><g fill-rule="nonzero"><path d="M70.95 444.72l58.804-85.164-1.014-1.014-.81.81.81-.81-19.263-19.263h-34.47l8.11 12.166-12.166-8.11-12.166 8.11 8.11-12.166h-34.47l-1.014 1.014.203.203-.203-.203-19.263 19.263z" class="J"/><path d="M83.117 327.112l-12.166 8.11-12.166-8.11 8.11 12.166-8.11 12.166 12.166-8.11 12.166 8.11-8.11-12.166z" class="D"/><path d="M70.95 445.734c-.203 0-.406 0-.608-.203l-.405-.405-58.804-85.165c-.203-.406-.203-1.014.203-1.217l20.277-20.277c.203-.203.406-.203.81-.203h24.333c.608 0 1.014.406 1.014 1.014s-.406 1.014-1.014 1.014H32.83L13.364 359.76l55.154 80.095-18.858-79.08H22.286c-.608 0-1.014-.406-1.014-1.014s.406-1.014 1.014-1.014H48.24l-10.34-10.34a.98.98 0 1 1 1.419-1.419l11.964 11.964h39.743l11.964-11.964a.98.98 0 1 1 1.419 1.419l-10.34 10.34h25.955c.608 0 1.014.406 1.014 1.014s-.406 1.014-1.014 1.014H92.445l-18.858 79.08 55.154-80.095-19.466-19.466h-24.13c-.608 0-1.014-.406-1.014-1.014s.406-1.014 1.014-1.014h24.333c.203 0 .608.203.81.203l20.277 20.277a.95.95 0 0 1 .203 1.217l-58.804 85.164s0 .203-.203.203l-.203.203c-.202.203-.405.203-.608.203zM51.89 360.57l19.06 79.7 19.06-79.7H51.89zm31.227-8.11c-.203 0-.406 0-.608-.203L70.95 344.55l-11.558 7.705c-.406.203-1.014.203-1.217-.203a.95.95 0 0 1-.203-1.217l7.705-11.558-7.706-11.558c-.203-.406-.203-1.014.203-1.217s.81-.406 1.217-.203l11.558 7.705L82.51 326.3c.406-.203 1.014-.203 1.217.203a.95.95 0 0 1 .203 1.217l-7.705 11.558 7.705 11.558c.203.406.203 1.014-.203 1.217 0 .406-.405.406-.608.406zM70.95 342.32c.203 0 .406 0 .608.203l7.908 5.272-5.272-7.908a1.29 1.29 0 0 1 0-1.217l5.272-7.908-7.908 5.272a1.29 1.29 0 0 1-1.217 0l-7.908-5.272 5.272 7.908a1.29 1.29 0 0 1 0 1.217l-5.272 7.908 7.908-5.272c.203-.203.406-.203.608-.203z" class="E"/><path d="M98.3 178.302H79.986v6.075h16.892v27.7c0 10.343-8.415 18.76-18.76 18.76H75.39c-1.64 2.298-3.608 4.345-5.84 6.075h8.567c13.694 0 24.835-11.14 24.835-24.835v-29.12a4.66 4.66 0 0 0-4.653-4.654zm-69.9 52.534h-2.727c-10.345 0-18.76-8.416-18.76-18.76v-27.698h16.892v-6.076H5.48a4.66 4.66 0 0 0-4.653 4.654v29.12c0 13.695 11.14 24.836 24.835 24.836h8.566c-2.232-1.73-4.2-3.777-5.84-6.076h.001z" class="G"/><path d="M51.9 243.2a28.82 28.82 0 0 1-8.896-1.4l-4.625 21.505h27.043L60.787 241.8c-2.874.93-5.876 1.402-8.896 1.4z" class="K"/><path d="M23.045 172.543v42.312c0 15.93 12.914 28.846 28.846 28.846s28.845-12.915 28.845-28.846v-42.313l-57.69.001z" fill="#ffc850"/><path d="M42.994 241.8l-4.625 21.505h5l4.39-20.404c-1.616-.23-3.2-.598-4.764-1.1z" class="G"/><path d="M28.045 214.855v-42.313h-5v42.313c0 15.93 12.914 28.846 28.845 28.846a29.1 29.1 0 0 0 2.5-.11c-14.76-1.267-26.345-13.648-26.345-28.736z" class="K"/><path d="M52.543 185.7l3.85 7.8a.73.73 0 0 0 .547.398l8.608 1.25a.73.73 0 0 1 .404 1.241l-6.23 6.072c-.17.167-.25.408-.208.643l1.47 8.574c.047.273-.065.55-.3.712s-.52.184-.766.054l-7.7-4.047c-.212-.11-.465-.11-.677 0l-7.7 4.047c-.245.13-.542.107-.766-.055s-.336-.438-.29-.71l1.47-8.574c.04-.236-.038-.476-.21-.643l-6.23-6.072c-.198-.193-.27-.482-.184-.746s.314-.455.588-.494l8.608-1.25a.73.73 0 0 0 .547-.398l3.85-7.8c.122-.25.375-.406.653-.406s.53.158.652.406z" class="G"/><path d="M48.85 203.105c.04-.236-.037-.477-.208-.644l-6.23-6.072c-.198-.193-.27-.482-.184-.746s.314-.455.588-.494l8.608-1.25a.73.73 0 0 0 .548-.398l2.2-4.48-1.64-3.32c-.122-.248-.375-.405-.652-.405s-.53.157-.652.405l-3.85 7.8a.73.73 0 0 1-.547.398l-8.608 1.25c-.274.04-.502.23-.588.495s-.014.553.185.746l6.23 6.072c.17.167.25.408.21.644l-1.47 8.573c-.047.273.065.55.29.712s.52.184.766.055l3.733-1.963 1.264-7.377z" fill="#ff8031"/><path d="M86.113 174.293H17.668a3.01 3.01 0 0 1-3-3v-3.418a3.01 3.01 0 0 1 3-3h68.445a3.01 3.01 0 0 1 3 3v3.417a3.01 3.01 0 0 1-3 3v.001z" class="K"/><path d="M86.113 169.28H17.668a3.01 3.01 0 0 1-2.888-2.202 2.99 2.99 0 0 0-.112.797v3.417a3.01 3.01 0 0 0 3 3h68.445a3.01 3.01 0 0 0 3-3v-3.417a2.93 2.93 0 0 0-.112-.798 3.01 3.01 0 0 1-2.888 2.203z" class="G"/><path d="M81.422 289.125H22.36a3.01 3.01 0 0 1-3-3v-20.07a3.01 3.01 0 0 1 3-3h59.062a3.01 3.01 0 0 1 3 3v20.07a3.01 3.01 0 0 1-3 3z" fill="#abffdb"/><path d="M24.36 286.125v-20.07a3.01 3.01 0 0 1 3-3h-5a3.01 3.01 0 0 0-3 3v20.07a3.01 3.01 0 0 0 3 3h5a3.01 3.01 0 0 1-3-3z" fill="#92e0c0"/><path d="M33.24 274.215c-1.036 0-1.875.84-1.875 1.875s.84 1.875 1.875 1.875h37.3c1.036 0 1.875-.84 1.875-1.875s-.84-1.875-1.875-1.875h-37.3zM86.112 163h-30c-1.036 0-1.875.84-1.875 1.875s.84 1.875 1.875 1.875h30a1.14 1.14 0 0 1 1.125 1.125v3.418a1.14 1.14 0 0 1-1.125 1.125H17.668a1.14 1.14 0 0 1-1.125-1.125v-3.418a1.14 1.14 0 0 1 1.125-1.125H47.37c1.036 0 1.875-.84 1.875-1.875S48.406 163 47.37 163H17.668a4.88 4.88 0 0 0-4.876 4.876v3.417a4.88 4.88 0 0 0 4.876 4.875h3.5v37.937c0 13.037 8.164 24.202 19.647 28.655l-3.962 18.42H22.36a4.88 4.88 0 0 0-4.875 4.875v20.07A4.88 4.88 0 0 0 22.36 291h59.06a4.88 4.88 0 0 0 4.875-4.875v-5.66c0-1.036-.84-1.875-1.875-1.875s-1.875.84-1.875 1.875v5.66a1.14 1.14 0 0 1-1.125 1.125H22.36a1.14 1.14 0 0 1-1.125-1.125v-20.07a1.14 1.14 0 0 1 1.125-1.125h59.06a1.14 1.14 0 0 1 1.125 1.125v5.66c0 1.036.84 1.875 1.875 1.875s1.875-.84 1.875-1.875v-5.66a4.88 4.88 0 0 0-4.875-4.875H66.926l-3.962-18.42c11.483-4.454 19.646-15.618 19.646-28.655v-37.937h3.502a4.88 4.88 0 0 0 4.875-4.875v-3.418A4.88 4.88 0 0 0 86.112 163zm-26.737 80.905L63.1 261.18H40.7l3.715-17.275a6.7 6.7 0 0 0 .315.074 29.99 29.99 0 0 0 1.273.277l.37.07.626.107.216.036.847.117.26.03a31.2 31.2 0 0 0 1.505.138l.306.02.625.028a31.54 31.54 0 0 0 2.027.01c.086-.002.172-.007.258-.01a30.38 30.38 0 0 0 2.436-.186l.26-.03.847-.117.216-.036.626-.106.37-.07a30.64 30.64 0 0 0 1.272-.277l.317-.074zm19.486-29.8c0 12.058-7.954 22.292-18.9 25.733l-1.052.307-.517.134a27.44 27.44 0 0 1-1.154.261l-.28.054-.704.125-.215.036a26.55 26.55 0 0 1-.886.122l-.23.026-.855.084-.084.007a27.74 27.74 0 0 1-1.151.063 27.36 27.36 0 0 1-.951.019 27.36 27.36 0 0 1-1.166-.027 26.49 26.49 0 0 1-.936-.055l-.084-.007a27.47 27.47 0 0 1-.855-.084l-.23-.026c-.296-.036-.6-.076-.886-.122l-.215-.036c-.236-.038-.47-.08-.704-.125l-.28-.054a26.56 26.56 0 0 1-1.673-.396 26.72 26.72 0 0 1-1.05-.306c-10.937-3.44-18.9-13.675-18.9-25.733v-37.937h53.94l-.001 37.937z" fill="#474d54"/><path fill="#26cfad" d="M577.47 76.977h40.498v31.07H577.47z"/><path fill="#f6b244" d="M586.45 69.163v7.814h31.517v23.257h7.813v-31.07z"/><path fill="#ececf0" d="M552.96 25.112V90.2h7.315V76.977h7.813v-7.814h22.055v-44.05z"/><path d="M553.183 90.2v14.546a3.3 3.3 0 0 0 3.301 3.3h3.79V90.2h-7.092z" fill="#516787"/><path d="M587.95 92.512c0-3.2 1.877-5.96 4.6-7.243a8.01 8.01 0 0 0-9.691 12.219 8.01 8.01 0 0 0 9.691 2.266c-2.802-1.322-4.6-4.143-4.6-7.242z" class="C"/><path d="M597.128 92.512c0-3.2-1.877-5.96-4.6-7.243-2.804 1.322-4.593 4.143-4.593 7.242s1.79 5.92 4.593 7.243c2.802-1.322 4.6-4.143 4.6-7.242z" fill="#f6b244"/><path d="M589.12 102.473c-5.492 0-9.96-4.47-9.96-9.96s4.468-9.96 9.96-9.96 9.96 4.468 9.96 9.96-4.468 9.962-9.96 9.962zm0-16.016c-3.342.004-6.05 2.713-6.054 6.055.004 3.342 2.713 6.05 6.055 6.054 3.342-.004 6.05-2.712 6.054-6.054-.004-3.342-2.712-6.05-6.054-6.055z" class="B"/><path d="M617.966 76.977v9.707l-.357.007c-4.954 0-8.985-4.03-8.985-8.984a8.8 8.8 0 0 1 .03-.73h9.312zm-48.35.73a9 9 0 0 1-8.985 8.984 8.5 8.5 0 0 1-.357-.007v-9.707h9.313a9.26 9.26 0 0 1 .029.73zm48.35 20.633v9.707h-9.312c-.02-.24-.03-.485-.03-.73a9 9 0 0 1 8.985-8.985c.12 0 .238.002.357.008zm-48.35 8.976a8.78 8.78 0 0 1-.03.73h-9.312V98.34c.12-.006.238-.008.357-.008a9 9 0 0 1 8.985 8.984z" fill="#fad06a"/><path d="M586.842 11.953h-30.58a3.3 3.3 0 0 0-3.301 3.301v9.858h37.182v-9.858a3.3 3.3 0 0 0-3.3-3.3l-.001-.001z" fill="#2c96b2"/><path d="M625.78 67.2h-33.685V15.254A5.26 5.26 0 0 0 586.842 10h-48.398a5.26 5.26 0 0 0-5.255 5.254v89.492a5.26 5.26 0 0 0 5.255 5.254h79.522a1.95 1.95 0 0 0 1.953-1.953v-5.86h5.86a1.95 1.95 0 0 0 1.953-1.953v-31.07c0-.518-.205-1.015-.572-1.382a1.95 1.95 0 0 0-1.38-.572zm-9.767 17.346c-2.74-.644-4.835-2.855-5.33-5.626h5.33v5.626zm-9.274-5.626c.55 4.93 4.394 8.882 9.274 9.598v7.967c-4.88.716-8.723 4.668-9.274 9.6h-35.237c-.55-4.93-4.394-8.883-9.274-9.6V88.52c4.88-.716 8.723-4.667 9.274-9.598h35.237zm-39.182 0c-.495 2.77-2.6 4.982-5.33 5.626V78.93h5.33zm.53-11.72a1.95 1.95 0 0 0-1.953 1.953v5.86h-5.86a1.95 1.95 0 0 0-1.38.572 1.96 1.96 0 0 0-.572 1.382v11.27h-21.226V27.065H588.2V67.2h-20.102zm-30.992-51.956a1.35 1.35 0 0 1 1.348-1.348h48.398a1.35 1.35 0 0 1 1.348 1.348v7.905h-51.094v-7.905zm0 89.492V92.153h21.226v13.94h-19.878a1.35 1.35 0 0 1-1.348-1.347zm25.132 1.348v-5.626c2.74.644 4.835 2.855 5.33 5.626h-5.33zm53.785 0h-5.33a7.07 7.07 0 0 1 5.33-5.626v5.626zm7.813-7.814h-3.907V76.977c0-.518-.205-1.015-.572-1.382a1.95 1.95 0 0 0-1.38-.572H570.04v-3.907h53.785V98.28zM566.55 20.486h-7.813c-1.08 0-1.953-.875-1.953-1.954s.875-1.953 1.953-1.953h7.812c1.08 0 1.954.875 1.954 1.953s-.875 1.954-1.954 1.954z" class="B"/><g class="C"><path d="M543.33 35.422h38.625v19.832H543.33z"/><path d="M543.33 35.422h38.625v13.835H543.33z"/></g><path fill="#e95542" d="M558.195 35.422h23.76v19.832h-23.76z"/><path fill="#ec7349" d="M558.195 35.422h23.76v13.835h-23.76z"/><path d="M581.956 33.47H543.33a1.95 1.95 0 0 0-1.953 1.953v19.832c0 1.08.875 1.953 1.953 1.953h38.626a1.95 1.95 0 0 0 1.38-.572c.365-.366.572-.863.572-1.38V35.423a1.95 1.95 0 0 0-.572-1.38c-.366-.365-.863-.572-1.38-.572zm-36.673 3.906h34.72v9.93h-34.72v-9.93zm0 15.926v-2.1h34.72v2.1h-34.72zm28.912-9.01a1.92 1.92 0 0 1-.746-.148c-.356-.15-.66-.4-.877-.72a1.98 1.98 0 0 1-.33-1.085 1.95 1.95 0 0 1 .15-.746 2 2 0 0 1 .422-.635 1.97 1.97 0 0 1 1-.533 1.9 1.9 0 0 1 1.465.3 1.83 1.83 0 0 1 .297.243 1.88 1.88 0 0 1 .424.635 1.97 1.97 0 0 1 .148.746c0 .386-.114.763-.328 1.084a1.88 1.88 0 0 1-.244.297 1.98 1.98 0 0 1-.998.535 1.94 1.94 0 0 1-.383.037zm-8.108.001H551.1c-1.08 0-1.954-.875-1.954-1.953s.875-1.953 1.954-1.953h14.997c1.08 0 1.953.875 1.953 1.953s-.875 1.953-1.953 1.953zM544.05 64.826a1.92 1.92 0 0 1-.748-.148 1.98 1.98 0 0 1-1.205-1.804c0-.257.05-.5.15-.747a1.93 1.93 0 0 1 .719-.877 1.98 1.98 0 0 1 .703-.291c.378-.077.77-.038 1.127.1a1.93 1.93 0 0 1 1.167 1.422c.105.507 0 1.036-.3 1.465a1.98 1.98 0 0 1-.54.54 1.93 1.93 0 0 1-.702.291 1.92 1.92 0 0 1-.381.037zm37.64.001h-29.53c-1.08 0-1.953-.875-1.953-1.953s.875-1.953 1.953-1.953h29.53c1.08 0 1.953.875 1.953 1.953s-.875 1.953-1.953 1.953z" class="B"/><path d="M624.7 358.5v10a5 5 0 0 1-5 5h-5v-20h5a5 5 0 0 1 5 5z" fill="#fff5cd"/><path d="M614.7 353.5v20h-44.757c-2.754-3.97-6.983-6.67-11.743-7.5h7.5a12.46 12.46 0 0 0 12.5-12.5v3.75a6.25 6.25 0 1 0 12.5 0 6.25 6.25 0 1 0 12.5 0v-3.75h11.5z" fill="#fd3c65"/><path d="M603.2 408.5v35h-50v-35h45z" class="L"/><path d="M601.36 340.33a6.25 6.25 0 0 0-10.67 4.42v-5a6.25 6.25 0 1 0-12.5 0c0-1.725-.7-3.3-1.83-4.42a6.25 6.25 0 0 0-10.67 4.42 6.25 6.25 0 1 0-12.5 0v13.75l.033.205c-7.232 1.207-12.532 7.463-12.533 14.795v1.288a14.96 14.96 0 0 0 .468 3.712 14.98 14.98 0 0 0 3.925 6.892l8.715 8.715a15 15 0 0 1 4.392 10.605v8.788h40v-9.4c0-3.485.77-6.927 2.25-10.077 1.618-3.438 2.75-7.083 2.75-10.88V373.5h-33.257c-2.754-3.97-6.983-6.67-11.743-7.5h7.5c3.45 0 6.575-1.4 8.838-3.662a12.46 12.46 0 0 0 3.662-8.838v3.75a6.25 6.25 0 1 0 12.5 0 6.25 6.25 0 1 0 12.5 0v-12.5c0-1.725-.7-3.3-1.83-4.42z" fill="#fec478"/><path d="M553.2 353.5l.033.205c-7.232 1.207-12.532 7.463-12.533 14.795v1.288a14.96 14.96 0 0 0 .468 3.712H521.7c5.523-5.523 5.523-14.477 0-20h31.5z" fill="#fd3c65"/><path d="M521.7 353.5c5.523 5.523 5.523 14.477 0 20l-20-10 20-10z" fill="#feb756"/><path d="M619.7 351h-14v-6.25c0-2.338-.9-4.536-2.562-6.188a8.69 8.69 0 0 0-10.362-1.5c-1.137-3.513-4.44-6.062-8.326-6.062a8.72 8.72 0 0 0-6.247 2.631l-.065-.068A8.69 8.69 0 0 0 571.95 331a8.72 8.72 0 0 0-6.25 2.635 8.72 8.72 0 0 0-6.25-2.635c-4.825 0-8.75 3.925-8.75 8.75V351h-29.012c-.085.001-.17.006-.255.015l-.084.012c-.062.01-.123.02-.184.033-.03.006-.06.014-.088.02-.06.016-.12.034-.18.054l-.08.028a2.02 2.02 0 0 0-.192.083c-.014.006-.03.01-.043.018l-20 10a2.5 2.5 0 0 0 0 4.472l20 10c.014.007.028.01.04.018a3.04 3.04 0 0 0 .196.084 2.61 2.61 0 0 0 .26.082l.084.02c.063.014.126.024.2.033.026.004.052.01.08.012a2.66 2.66 0 0 0 .268.015h17.643c.877 2.3 2.235 4.4 3.982 6.16l8.715 8.715a12.42 12.42 0 0 1 3.66 8.837V406h-2.5a2.5 2.5 0 0 0-2.5 2.5v35a2.5 2.5 0 0 0 2.5 2.5h50a2.5 2.5 0 0 0 2.5-2.5v-35a2.5 2.5 0 0 0-2.5-2.5h-2.5v-6.9c0-3.095.696-6.212 2.012-9.013 2-4.273 2.988-8.18 2.988-11.945V376h14a7.51 7.51 0 0 0 7.5-7.5v-10a7.51 7.51 0 0 0-7.5-7.5zm-7.5 5v15h-41.003a20.66 20.66 0 0 0-2.648-2.769 14.89 14.89 0 0 0 7.756-4.126c.46-.46.88-.945 1.272-1.45A8.74 8.74 0 0 0 584.44 366a8.72 8.72 0 0 0 6.25-2.635 8.72 8.72 0 0 0 6.25 2.635c4.825 0 8.75-3.925 8.75-8.75V356h6.5zm-15.25-15c1.003 0 1.944.4 2.652 1.098a3.73 3.73 0 0 1 1.098 2.652v12.5c-.002 2.07-1.68 3.748-3.75 3.75s-3.748-1.68-3.75-3.75v-12.5c.002-2.07 1.68-3.748 3.75-3.75zm-12.5-5c2.07.002 3.748 1.68 3.75 3.75v17.5c-.002 2.07-1.68 3.748-3.75 3.75s-3.748-1.68-3.75-3.75v-17.5c.002-2.07 1.68-3.748 3.75-3.75zm-12.5 0c1.003 0 1.944.4 2.652 1.098a3.73 3.73 0 0 1 1.098 2.652V351h-7.5v-11.25c.002-2.07 1.68-3.748 3.75-3.75zm-16.25 3.75c.002-2.07 1.68-3.748 3.75-3.75s3.748 1.68 3.75 3.75V351h-7.5v-11.25zm-14 18.25a17.61 17.61 0 0 0-3.5 10.5v1.288a17.48 17.48 0 0 0 .044 1.212h-11.7a16.71 16.71 0 0 0 0-15h16.9c-.634.622-1.22 1.3-1.753 2zm-20.62-1.396a11.67 11.67 0 0 1 0 13.791l-13.8-6.895 13.8-6.896zM600.7 441h-45v-30h45v30zm0-62.867c0 3.012-.823 6.223-2.514 9.817a26.37 26.37 0 0 0-2.487 11.14v6.9h-35v-6.287a17.38 17.38 0 0 0-5.125-12.373l-8.715-8.715c-2.344-2.344-3.66-5.523-3.66-8.837V368.5c0-2.686.888-5.35 2.5-7.5a12.44 12.44 0 0 1 7.944-4.83 12.52 12.52 0 0 1 2.056-.171h19.685c-.445 1.73-1.35 3.3-2.615 4.57a9.93 9.93 0 0 1-7.07 2.93h-7.5a2.5 2.5 0 0 0-.43 4.963 15.49 15.49 0 0 1 10.12 6.464l.017.022a15.53 15.53 0 0 1 2.768 8.789l.025 4.775a2.5 2.5 0 0 0 2.5 2.487h.013a2.5 2.5 0 0 0 2.487-2.513l-.025-4.775c-.012-2.646-.535-5.265-1.54-7.712H600.7v2.132zm21.5-9.633c0 1.38-1.122 2.5-2.5 2.5h-2.5v-15h2.5c1.378 0 2.5 1.122 2.5 2.5v10zm-29 47.5h-20a2.5 2.5 0 1 0 0 5h20a2.5 2.5 0 1 0 0-5zm-30 0a2.5 2.5 0 1 0 0 5 2.5 2.5 0 1 0 0-5z" class="B"/><path fill="#777" d="M677.136 378.908h105.426v12.164H677.136z"/><path d="M782.562 393.098H677.137c-.538 0-1.054-.213-1.434-.593s-.594-.896-.594-1.434v-12.165a2.03 2.03 0 0 1 2.028-2.027h105.425a2.03 2.03 0 0 1 2.028 2.027v12.165a2.03 2.03 0 0 1-2.028 2.027zm-103.398-4.054h101.37v-8.1h-101.37v8.1z" class="B"/><path fill="#fbad4a" d="M693.357 328.22h72.987v50.686h-72.987z"/><path d="M766.343 380.934h-72.987a2.03 2.03 0 0 1-1.434-.594 2.02 2.02 0 0 1-.593-1.434V328.22c0-1.12.908-2.027 2.027-2.027h72.987a2.03 2.03 0 0 1 2.028 2.027v50.686a2.03 2.03 0 0 1-2.028 2.027zm-70.96-4.055h68.933v-46.63h-68.932l-.001 46.63zm46.684-30.41h-38.574a2.03 2.03 0 0 1-2.028-2.028 2.03 2.03 0 0 1 2.028-2.027h38.574a2.03 2.03 0 0 1 2.028 2.027 2.03 2.03 0 0 1-2.028 2.028zm-16.272 6.082h-22.302a2.03 2.03 0 0 1-2.028-2.028 2.03 2.03 0 0 1 2.028-2.027h22.302a2.03 2.03 0 0 1 2.028 2.027 2.03 2.03 0 0 1-2.028 2.028zm30.4 0h-22.3a2.03 2.03 0 0 1-2.027-2.028 2.03 2.03 0 0 1 2.027-2.027h22.3a2.03 2.03 0 0 1 2.027 2.027 2.03 2.03 0 0 1-2.027 2.028zm-8.1 6.083h-44.603a2.03 2.03 0 0 1-2.028-2.027 2.03 2.03 0 0 1 2.028-2.028h44.603a2.03 2.03 0 0 1 2.028 2.028 2.03 2.03 0 0 1-2.028 2.027z" class="B"/><path fill="#777" d="M677.136 427.565h105.426v8.1H677.136z"/><path d="M782.562 437.702H677.137c-.538 0-1.054-.213-1.434-.594s-.594-.896-.594-1.434v-8.1a2.03 2.03 0 0 1 2.028-2.027h105.425c1.12 0 2.028.906 2.028 2.027v8.1a2.03 2.03 0 0 1-2.028 2.028zm-103.398-4.055h101.37v-4.055h-101.37v4.055z" class="B"/><path fill="#ddd" d="M687.275 435.673h10.136v8.1h-10.136z"/><path d="M697.41 445.81h-10.137a2.03 2.03 0 0 1-2.027-2.027v-8.1c0-1.12.908-2.027 2.027-2.027h10.137c1.12 0 2.028.906 2.028 2.027v8.1a2.03 2.03 0 0 1-2.028 2.027zm-8.1-4.055h6.083v-4.054H689.3v4.054z" class="B"/><path fill="#ddd" d="M764.316 435.673h10.136v8.1h-10.136z"/><path d="M774.453 445.81h-10.137c-.538 0-1.054-.213-1.434-.593s-.594-.896-.594-1.434v-8.1a2.03 2.03 0 0 1 2.028-2.027h10.137c1.12 0 2.027.906 2.027 2.027v8.1c0 1.12-.908 2.027-2.027 2.027zm-8.1-4.055h6.082v-4.054h-6.082v4.054z" class="B"/><path fill="#26bbec" d="M680.902 391.07h95.868l5.792 36.494H677.137z"/><g class="B"><path d="M782.562 429.592H677.137a2.03 2.03 0 0 1-1.506-.67c-.386-.427-.57-.995-.5-1.566l3.765-36.494a2.03 2.03 0 0 1 2.017-1.82h95.868a2.03 2.03 0 0 1 2.003 1.709l5.792 36.493a2.03 2.03 0 0 1-2.003 2.347zm-103.177-4.055h100.803l-5.15-32.44H682.73l-3.346 32.44zm16-2.037c-.538 0-1.054-.213-1.434-.594a2.03 2.03 0 0 1-.594-1.434v-8.1a2.03 2.03 0 0 1 2.028-2.028 2.03 2.03 0 0 1 2.028 2.028v8.1a2.03 2.03 0 0 1-2.027 2.028z"/><path d="M701.466 415.4H689.3a2.03 2.03 0 0 1-2.027-2.027 2.03 2.03 0 0 1 2.027-2.027h12.165a2.03 2.03 0 0 1 2.027 2.027 2.03 2.03 0 0 1-2.027 2.027zm4.054-8.1a2.03 2.03 0 0 1-2.027-2.027v-8.1a2.03 2.03 0 0 1 2.027-2.028 2.03 2.03 0 0 1 2.028 2.028v8.1c0 1.12-.907 2.027-2.027 2.027z"/><path d="M711.603 399.18H699.44a2.03 2.03 0 0 1-2.027-2.027 2.03 2.03 0 0 1 2.027-2.027h12.164a2.03 2.03 0 0 1 2.027 2.028 2.03 2.03 0 0 1-2.027 2.027l-.001-.001zm30.41 24.33c-.538 0-1.053-.214-1.434-.594s-.594-.896-.593-1.434v-8.1a2.03 2.03 0 0 1 2.028-2.028 2.03 2.03 0 0 1 2.028 2.028v8.1a2.03 2.03 0 0 1-2.028 2.028z"/><path d="M748.096 415.4h-12.164a2.03 2.03 0 0 1-2.028-2.027 2.03 2.03 0 0 1 2.028-2.027h12.164a2.03 2.03 0 0 1 2.028 2.027 2.03 2.03 0 0 1-2.028 2.027zm18.247 8.1c-.538 0-1.053-.214-1.434-.594s-.594-.896-.593-1.434v-8.1a2.03 2.03 0 0 1 2.027-2.028 2.03 2.03 0 0 1 2.028 2.028v8.1a2.03 2.03 0 0 1-2.028 2.028z"/><path d="M772.425 415.4H760.26a2.03 2.03 0 0 1-2.027-2.027 2.03 2.03 0 0 1 2.027-2.027h12.164a2.03 2.03 0 0 1 2.028 2.027 2.03 2.03 0 0 1-2.028 2.027zm-18.246-8.1c-.538 0-1.054-.213-1.434-.593s-.594-.896-.594-1.434v-8.1a2.03 2.03 0 0 1 2.028-2.028 2.03 2.03 0 0 1 2.028 2.028v8.1c0 1.12-.908 2.027-2.027 2.027z"/><path d="M760.26 399.18h-12.164a2.03 2.03 0 0 1-2.027-2.027 2.03 2.03 0 0 1 2.027-2.027h12.165a2.03 2.03 0 0 1 2.028 2.028 2.03 2.03 0 0 1-2.028 2.027zm-42.575 24.33c-.538 0-1.053-.214-1.434-.594s-.594-.896-.593-1.434v-8.1a2.03 2.03 0 0 1 2.028-2.028 2.03 2.03 0 0 1 2.027 2.028v8.1a2.03 2.03 0 0 1-2.028 2.028z"/><path d="M723.768 415.4h-12.165a2.03 2.03 0 0 1-2.027-2.027 2.03 2.03 0 0 1 2.027-2.027h12.165a2.03 2.03 0 0 1 2.027 2.027 2.03 2.03 0 0 1-2.027 2.027zm6.082-8.1c-.538 0-1.054-.213-1.434-.593s-.594-.896-.594-1.434v-8.1a2.03 2.03 0 0 1 2.028-2.028 2.03 2.03 0 0 1 2.027 2.028v8.1c0 1.12-.908 2.027-2.027 2.027z"/><path d="M735.932 399.18h-12.164a2.03 2.03 0 0 1-2.027-2.027 2.03 2.03 0 0 1 2.027-2.027h12.164a2.03 2.03 0 0 1 2.028 2.028 2.03 2.03 0 0 1-2.028 2.027z"/></g><path d="M782.562 373.838c0-2.8 2.25-5.068 5.07-5.068 2.8 0 5.07 2.28 5.07 5.068v22.302c0 2.8-2.25 5.068-5.07 5.068-2.798 0-5.068-2.28-5.068-5.068v-22.302z" fill="#85d839"/><path d="M787.63 403.236c-3.912 0-7.095-3.184-7.095-7.096v-22.302c0-3.912 3.184-7.096 7.096-7.096s7.096 3.184 7.096 7.096v22.302c0 3.912-3.184 7.096-7.096 7.096zm0-32.44c-1.678.002-3.038 1.363-3.04 3.04v22.302c.002 1.678 1.362 3.038 3.04 3.04s3.04-1.36 3.042-3.04v-22.302c-.002-1.68-1.362-3.04-3.04-3.04zm-102.4 16.287h-16.202c-.538 0-1.054-.213-1.434-.594s-.594-.896-.594-1.434v-12.232a2.03 2.03 0 0 1 2.028-2.027h14.824a2.03 2.03 0 0 1 2.028 2.027 2.03 2.03 0 0 1-2.028 2.027h-12.797v8.177h14.175a2.03 2.03 0 0 1 2.028 2.028 2.03 2.03 0 0 1-2.028 2.027z" class="B"/><path d="M773.102 247.065l-26.3 26.3a1.82 1.82 0 0 1-2.568 0l-11.326-11.326-8.95 8.95 17.084 17.084a6.33 6.33 0 0 0 8.95 0l32.068-32.07-8.95-8.948z" fill="#a5eb78"/><g class="B"><path d="M779.09 253.054l-33.854 33.855c-.93.93-2.104 1.574-3.387 1.86a6.33 6.33 0 0 0 8.132-.687l32.07-32.07-2.96-2.96z" opacity=".1"/><path d="M745.508 290.884a7.23 7.23 0 0 1-5.146-2.131l-17.084-17.084a.95.95 0 0 1 0-1.343l8.95-8.95a.95.95 0 0 1 1.341 0l3.36 3.36a.95.95 0 1 1-1.342 1.342l-2.7-2.688-7.606 7.607 16.413 16.413a5.34 5.34 0 0 0 3.803 1.575 5.35 5.35 0 0 0 3.804-1.575l21.908-21.9a.95.95 0 1 1 1.342 1.342l-21.908 21.9a7.23 7.23 0 0 1-5.146 2.131zm0-16.03c-.734.002-1.438-.3-1.955-.8l-5.282-5.28a.95.95 0 1 1 1.343-1.342l5.28 5.28a.86.86 0 0 0 .613.254.86.86 0 0 0 .613-.254l26.3-26.3a.95.95 0 0 1 1.342 0l8.95 8.95a.95.95 0 0 1 0 1.342l-7.475 7.475a.95.95 0 0 1-1.343-1.342l6.805-6.804-7.607-7.607-25.64 25.638a2.75 2.75 0 0 1-1.955.81z"/></g><path d="M657.7 292.355l-8.77 8.77c-.236.236-.62.236-.855 0l-3.776-3.775-2.983 2.983 5.695 5.694a2.11 2.11 0 0 0 2.983 0l10.7-10.7-2.983-2.982z" fill="#a5eb78"/><g class="B"><path d="M659.697 294.35l-11.285 11.285a2.31 2.31 0 0 1-1.129.62 2.11 2.11 0 0 0 2.711-.229l10.7-10.7-.987-.986z" opacity=".1"/><path d="M648.503 306.96a2.41 2.41 0 0 1-1.716-.71l-5.694-5.695c-.06-.06-.093-.14-.093-.224s.033-.164.093-.224l2.983-2.983c.06-.06.14-.093.223-.093s.164.033.224.093l1.12 1.12c.123.123.123.324 0 .447s-.324.123-.447 0l-.897-.896-2.535 2.536 5.47 5.47a1.78 1.78 0 0 0 1.269.526 1.78 1.78 0 0 0 1.268-.525l7.302-7.303a.32.32 0 0 1 .306-.082c.1.028.195.114.224.224s-.002.226-.082.306l-7.303 7.303a2.41 2.41 0 0 1-1.715.71zm0-5.342a.91.91 0 0 1-.652-.27l-1.76-1.76c-.08-.08-.1-.196-.082-.305s.114-.194.223-.224.225.002.305.082l1.76 1.76c.054.055.128.086.205.086a.28.28 0 0 0 .204-.086l8.77-8.77c.06-.06.14-.093.224-.093s.164.033.223.093l2.983 2.983c.06.06.093.14.093.224s-.034.165-.093.224l-2.5 2.5c-.123.124-.324.124-.448 0s-.124-.324 0-.447l2.268-2.268-2.535-2.536-8.547 8.546a.92.92 0 0 1-.65.27z"/></g><path d="M331.58 229.255v23.285h16.633v-23.285h-3.327v-6.653h-9.98v6.653h-3.327zm-21.62 0v29.938h3.326v6.652h8.316v-6.652h3.327v-29.938H321.6v-6.653h-8.316v6.653h-3.325zm44.906 0v23.285h14.97v-23.285h-3.327v-6.653h-8.316v6.653h-3.327z" fill="#ebe5dd"/><path d="M303.306 229.255h6.653v29.938h-6.653z" class="F"/><path fill="#004fac" d="M295 272.498h-3.326v6.653h39.916v-6.653z"/><path fill="#006df0" d="M331.58 265.845H295v6.653h36.6z"/><path d="M313.285 259.193H299.98v6.652h13.305z" class="M"/><path d="M313.285 229.255v-6.653H299.98v6.653h9.98z" class="H"/><path d="M369.834 229.255h6.653v23.285h-6.653z" class="F"/><path d="M366.508 229.255h13.306v-6.653h-13.306z" class="H"/><path d="M324.928 229.255v29.938h6.653v-29.938z" class="F"/><path d="M321.6 259.193v6.652h9.98v-6.652h-6.653z" class="M"/><path d="M324.928 229.255h9.98v-6.653H321.6v6.653z" class="H"/><path d="M348.213 229.255h6.652v23.285h-6.652z" class="F"/><path d="M348.213 229.255h9.98v-6.653h-13.306v6.653z" class="H"/><path d="M291.664 205.97v16.632h96.466V205.97l-48.233-13.306-48.233 13.306zm89.813 9.98h-83.16v-4.914l41.58-11.476 41.58 11.476v4.914z" fill="#bddbff"/><path d="M298.317 211.036v4.913h83.16v-4.913l-41.58-11.476-41.58 11.476zm44.906-3.403c0 1.837-1.49 3.326-3.326 3.326s-3.326-1.49-3.326-3.326 1.49-3.326 3.326-3.326 3.326 1.49 3.326 3.326z" class="F"/><circle cx="339.897" cy="207.633" r="3.326" class="M"/><path d="M354.865 252.54H331.58v6.653h56.55v-6.653h-33.265zm-23.285 19.958v16.632h56.55v-23.285h-56.55v6.653zm39.918 3.327c1.837 0 3.326 1.49 3.326 3.326 0-1.837 1.49-3.326 3.326-3.326s3.326 1.49 3.326 3.326-1.49 3.326-3.326 3.326-3.326-1.49-3.326-3.326c0 1.345-.8 2.558-2.053 3.073s-2.673.23-3.625-.72-1.236-2.382-.72-3.625 1.728-2.053 3.073-2.053z" fill="#ffdaaa"/><path fill="#57565c" d="M331.58 259.193h56.55v6.652h-56.55z"/><circle fill="#ff5023" cx="371.498" cy="279.151" r="3.326"/><circle fill="#ffaf46" cx="378.15" cy="279.151" r="3.326"/><path d="M379.814 230.918c.918 0 1.663-.745 1.663-1.663v-5h6.653c.918 0 1.663-.744 1.663-1.663V205.97c0-.748-.5-1.404-1.22-1.603L340.34 191.06a1.63 1.63 0 0 0-.885 0l-48.233 13.307c-.72.2-1.22.855-1.22 1.603v16.632a1.66 1.66 0 0 0 1.663 1.663h6.653v5c0 .918.744 1.663 1.663 1.663h1.663v26.612h-1.663c-.92 0-1.663.745-1.663 1.664v5H295c-.918 0-1.663.744-1.663 1.662v5h-1.663a1.66 1.66 0 0 0-1.664 1.662v6.653c0 .918.744 1.663 1.663 1.663h38.253v8.316c0 .92.745 1.663 1.664 1.663h56.55c.918 0 1.663-.744 1.663-1.663v-36.6c0-.92-.745-1.663-1.663-1.663h-9.98v-19.96h1.664zm-1.664-3.326h-9.98v-3.327h9.98v3.327zm-21.62 23.285v-19.96h1.663c.918 0 1.663-.745 1.663-1.663v-5h5v5c0 .918.744 1.663 1.663 1.663h1.663v19.96H356.53zm-23.285 0v-19.96h1.663c.92 0 1.663-.745 1.663-1.663v-5h6.653v5c0 .918.745 1.663 1.663 1.663h1.663v19.96h-13.305zm53.222 13.305h-53.223v-3.326h53.222v3.326zm-71.517 0v-5c0-.918-.745-1.663-1.664-1.663h-1.663v-26.6h1.663c.92 0 1.664-.746 1.664-1.664v-5h5v5c0 .918.744 1.663 1.662 1.663h1.664v26.6H321.6c-.918 0-1.663.745-1.663 1.664v5h-5l.003-.002zm14.968-6.653h-3.326v-26.6h3.326v26.6zm1.664-29.937h-8.316v-3.327h9.98v3.327h-1.663zm-8.316 33.264h6.652v3.326h-6.652v-3.326zm31.6-33.264h-8.316v-3.327h9.98v3.327h-1.664zm-5 3.326h3.327v19.96h-3.326l-.001-19.96zm-56.548-23.68l46.57-12.85 46.57 12.848v13.703h-93.142l.002-13.702zm18.295 17.027v3.327h-9.98v-3.327h9.98zm-6.653 6.653h3.327v26.612h-3.327v-26.612zm-3.326 29.938h9.98v3.326h-9.98v-3.326zm-5 6.653h33.264v3.326h-33.265v-3.326zm-3.326 9.98v-3.328h36.6v3.327l-36.6.001zm39.917 9.98V267.5h53.222v19.958h-53.222zm53.222-29.938h-53.223v-3.326h53.222v3.326zm-11.642-6.652H371.5v-19.96h3.326v19.96zm8.335-34.93v-4.914c0-.748-.5-1.404-1.22-1.603l-41.58-11.476a1.63 1.63 0 0 0-.886 0l-41.58 11.476c-.72.2-1.22.855-1.22 1.603v4.913a1.66 1.66 0 0 0 1.663 1.663h83.16c.918 0 1.663-.744 1.663-1.663zm-3.326-1.664H299.98v-1.982l39.917-11.014 39.917 11.013v1.983zm-44.907-6.653a4.99 4.99 0 1 0 9.98 0 4.99 4.99 0 1 0-9.98 0zm6.653 0c0 .92-.745 1.663-1.663 1.663s-1.663-.745-1.663-1.663.745-1.663 1.663-1.663 1.663.745 1.663 1.663zm36.6 66.528a4.96 4.96 0 0 0-3.326 1.298 4.99 4.99 0 1 0 0 7.384 4.99 4.99 0 1 0 3.326-8.682zm-6.652 6.653c-.918 0-1.663-.745-1.663-1.663s.745-1.663 1.663-1.663 1.663.745 1.663 1.663-.745 1.663-1.663 1.663zm6.652 0c-.918 0-1.663-.745-1.663-1.663s.745-1.663 1.663-1.663 1.663.745 1.663 1.663-.745 1.663-1.663 1.663zm-36.6-3.326h-3.327c-.918 0-1.663.745-1.663 1.663s.745 1.663 1.663 1.663h3.327c.918 0 1.663-.745 1.663-1.663s-.745-1.663-1.663-1.663zm19.958 0h-13.305c-.918 0-1.663.745-1.663 1.663s.745 1.663 1.663 1.663h13.305c.918 0 1.663-.745 1.663-1.663s-.745-1.663-1.663-1.663z" fill="#231f20"/><path d="M542.523 258.128l-12.08-27.962a5.42 5.42 0 0 0-3.62-3.097l-17.044-4.4 3.743-21.897c.27-1.58-.098-3.204-1.025-4.513s-2.336-2.196-3.917-2.466l-3.504-.6c-7.047-1.204-13.64 3.855-14.288 10.983l-2.104 23.105c-.14 1.544.42 3.07 1.526 4.154s2.642 1.616 4.183 1.446l8.125-.895 19.028 4.913 11.03 25.526a5.42 5.42 0 0 0 9.348 1.112 5.42 5.42 0 0 0 .601-5.41z" fill="#414b82"/><path d="M500.767 258.83c-1.72 0-3.115-1.395-3.115-3.115v-19.493c0-1.72 1.395-3.115 3.115-3.115s3.115 1.395 3.115 3.115v19.493c0 .826-.328 1.62-.912 2.203s-1.377.912-2.203.912z" fill="#50555a"/><path d="M565.887 265.697a2.99 2.99 0 0 1-2.99-2.99v-38.66h-38.875v38.66a2.99 2.99 0 1 1-5.981 0v-41.652a2.99 2.99 0 0 1 2.99-2.99h44.856a2.99 2.99 0 0 1 2.99 2.99v41.652a2.99 2.99 0 0 1-2.99 2.99z" fill="#ad6041"/><path d="M557.667 214.783c0 1.316-1.066 2.382-2.382 2.382H541c-1.316 0-2.382-1.066-2.382-2.382s1.066-2.382 2.382-2.382h11.902v-18.763c0-1.316 1.066-2.382 2.382-2.382s2.382 1.066 2.382 2.382v21.145z" fill="#6c9baa"/><path d="M552.233 209.278c-.364.843-1.343 1.23-2.186.867l-3.8-1.646c-.843-.364-1.23-1.343-.867-2.186l11.922-27.597c.364-.843 1.343-1.23 2.186-.867l3.8 1.646c.843.364 1.23 1.343.867 2.186l-11.922 27.597z" fill="#a5c8cd"/><circle fill="#ffb69e" cx="513.382" cy="182.041" r="9.967"/><path d="M519.665 214.885c-.94 0-1.86-.294-2.625-.84l-15.783-11.272c-2.03-1.45-2.5-4.27-1.05-6.3s4.27-2.5 6.3-1.05l14.33 10.235 16.93-2.256c1.6-.213 3.2.443 4.175 1.72s1.212 2.985.596 4.476-1.98 2.54-3.578 2.755l-18.7 2.492c-.198.026-.397.04-.595.04z" fill="#f7a98f"/><path d="M489.002 229.592c-.28-.736-.4-1.526-.32-2.31l2.104-23.105c.648-7.12 7.233-12.19 14.288-10.983l3.504.6a6.05 6.05 0 0 1 4.942 6.978l-4.08 23.87-20.44 4.95z" fill="#64afff"/><path d="M521.132 217.9c-1.052 0-2.072-.367-2.882-1.038l-17.25-14.3c-1.89-1.6-2.138-4.422-.558-6.328s4.4-2.184 6.322-.625l15.746 13.054 12.666-1.576c1.6-.2 3.186.47 4.16 1.758s1.185 2.995.558 4.48-2 2.524-3.602 2.723l-14.6 1.818a4.5 4.5 0 0 1-.558.035v-.002z" fill="#ffb69e"/><path d="M514.7 202.206l-7.946-6.587c-1.242-1.03-2.94-1.318-4.452-.757s-2.61 1.886-2.882 3.477.328 3.205 1.57 4.234l7.296 6.047 6.414-6.414z" fill="#4699f2"/><path d="M511.4 239h-22.7a3.74 3.74 0 0 1-3.738-3.738 3.74 3.74 0 0 1 3.738-3.738h22.7a3.74 3.74 0 0 1 3.738 3.738A3.74 3.74 0 0 1 511.39 239zm-2.33 25.785l-3.614-3.613h-9.683l-3.614 3.613c-.784.802-1.938 1.12-3.022.834s-1.93-1.133-2.217-2.217.032-2.238.834-3.022l4.526-4.526c.584-.584 1.377-.912 2.203-.912h12.264a3.12 3.12 0 0 1 2.203.912l4.525 4.526c.802.784 1.12 1.938.834 3.022s-1.133 1.93-2.217 2.217-2.238-.032-3.022-.834z" fill="#80868c"/><circle cx="472.43" cy="207.371" r="9.967" class="N"/><path d="M478.963 240.944c-.94 0-1.86-.293-2.625-.84l-15.783-11.274c-1.313-.938-2.026-2.505-1.87-4.11s1.156-3.007 2.625-3.675 3.182-.502 4.495.436l14.33 10.235 16.93-2.256c1.6-.213 3.2.443 4.175 1.72s1.212 2.985.596 4.476-1.98 2.54-3.578 2.755l-19.295 2.532z" fill="#ab5837"/><path d="M496.114 284.312l-6.313-27.96a5.42 5.42 0 0 0-3.932-4.053l-16.86-4.353 3.56-20.823c.27-1.58-.1-3.204-1.026-4.513s-2.336-2.195-3.916-2.465c-1.824-.057-7.485-2.51-13.05 1.767a12.27 12.27 0 0 0-4.742 8.616l-2.105 23.105c-.14 1.543.42 3.068 1.526 4.154s2.642 1.617 4.182 1.447l11.17-1.23 15.348 3.962 5.585 24.735a5.42 5.42 0 0 0 9.008 2.858 5.42 5.42 0 0 0 1.564-5.246z" fill="#55696e"/><path d="M448.054 255.956c-.285-.74-.396-1.535-.324-2.324l2.105-23.105c.648-7.12 7.233-12.188 14.287-10.983l3.505.6a6.05 6.05 0 0 1 4.942 6.978l-3.56 20.823-20.955 8.01z" fill="#ff3c3c"/><path d="M477.46 241.58l-16.998-12.817c-1.288-.97-1.96-2.556-1.763-4.158s1.234-2.976 2.72-3.606 3.194-.42 4.482.552l14.584 10.997 11.004-6.5c2.146-1.27 4.916-.56 6.185 1.588s.56 4.916-1.587 6.185l-13.607 8.05c-1.575.932-3.556.82-5.017-.28h-.002z" class="N"/><path d="M474.175 227.8l-8.277-6.24c-1.288-.983-3.003-1.2-4.496-.572s-2.534 2.01-2.728 3.62.487 3.198 1.787 4.165l8.622 6.5 5.092-7.472z" fill="#e82c2c"/><path d="M459.814 285.414c-1.72-.001-3.114-1.395-3.114-3.115v-20.746c-.02-1.126.57-2.175 1.54-2.744s2.175-.57 3.147 0 1.56 1.618 1.54 2.744V282.3c0 .826-.328 1.62-.912 2.203s-1.377.912-2.203.912z" fill="#50555a"/><path d="M524.934 290.926a2.99 2.99 0 0 1-2.99-2.99v-38.663H483.07v38.66a2.99 2.99 0 1 1-5.982 0v-41.65a2.99 2.99 0 0 1 2.991-2.99h44.855a2.99 2.99 0 0 1 2.991 2.99v41.652a2.99 2.99 0 0 1-2.99 2.991z" class="N"/><path d="M527.675 250.022H477.1a3.74 3.74 0 0 1-3.738-3.738 3.74 3.74 0 0 1 3.738-3.738h50.587a3.74 3.74 0 0 1 3.738 3.738 3.74 3.74 0 0 1-3.738 3.738h-.002zm40.587-25.382h-50.587a3.74 3.74 0 0 1-3.677-3.737 3.74 3.74 0 0 1 3.677-3.738h50.587a3.74 3.74 0 0 1 3.738 3.738 3.74 3.74 0 0 1-3.738 3.738v-.001z" fill="#e28c71"/><path d="M470.437 264.33h-22.7a3.74 3.74 0 0 1-3.677-3.738 3.74 3.74 0 0 1 3.677-3.737h22.7a3.74 3.74 0 0 1 3.737 3.738 3.74 3.74 0 0 1-3.738 3.738v-.001zm-2.33 25.683l-3.614-3.613h-9.683l-3.614 3.613c-.784.802-1.938 1.12-3.022.834s-1.93-1.133-2.217-2.217.032-2.238.834-3.022l4.526-4.526c.584-.584 1.377-.912 2.203-.912h12.264c.826 0 1.62.328 2.203.912l4.526 4.527c.8.784 1.12 1.938.833 3.022s-1.133 1.93-2.217 2.216-2.238-.033-3.022-.835z" fill="#80868c"/><path d="M516.714 240.163a2.38 2.38 0 0 1-2.382 2.383h-14.284c-1.316 0-2.382-1.067-2.382-2.382s1.067-2.382 2.382-2.382h11.902v-18.76a2.38 2.38 0 0 1 3.573-2.063 2.38 2.38 0 0 1 1.191 2.063v21.143z" fill="#6c9baa"/><path d="M511.28 234.506c-.364.843-1.343 1.23-2.186.867l-3.81-1.645c-.405-.175-.724-.504-.887-.914s-.156-.868.02-1.273l11.922-27.596c.364-.843 1.343-1.23 2.186-.867l3.8 1.646c.843.364 1.23 1.343.867 2.186l-11.923 27.596z" fill="#a5c8cd"/><path fill="#c7daff" d="M174.27 200.953h53.777v88.28H174.27z"/><path fill="#ecf2ff" d="M168.086 234.547h13.086v54.688h-13.086z"/><path d="M192.11 234.547h35.938v42.97H192.11z" class="C"/><path fill="#ecf2ff" d="M207.8 234.547h20.248v42.97H207.8z"/><path d="M191.75 212.672v-11.72h-5.89v11.72a7.03 7.03 0 0 0 9.978 6.384 7.03 7.03 0 0 1-4.086-6.384h-.001z" class="C"/><path d="M199.922 212.672v-11.72h-8.17v11.72a7.03 7.03 0 0 0 4.085 6.384 7.03 7.03 0 0 0 4.085-6.384z" class="O"/><path d="M205.684 212.672v-11.72h-5.762v11.72a7.03 7.03 0 0 0 9.912 6.414 7.03 7.03 0 0 1-4.15-6.414z" class="C"/><path d="M213.984 212.672v-11.72h-8.3v11.72a7.03 7.03 0 0 0 4.15 6.414 7.03 7.03 0 0 0 4.15-6.414z" fill="#dde9ff"/><path d="M219.84 212.672v-11.72h-5.857v11.72a7.03 7.03 0 0 0 9.96 6.392 7.03 7.03 0 0 1-4.103-6.392z" class="C"/><path d="M228.047 212.672v-11.72h-8.207v11.72a7.03 7.03 0 0 0 4.103 6.392 7.03 7.03 0 0 0 4.103-6.392h.001z" class="O"/><path d="M177.803 212.672v-11.72h-6.006v11.72a7.03 7.03 0 0 0 10.033 6.358 7.03 7.03 0 0 1-4.028-6.358h.001z" class="C"/><path d="M185.86 212.672v-11.72h-8.057v11.72a7.03 7.03 0 0 0 4.028 6.358 7.03 7.03 0 0 0 4.028-6.358h.001z" fill="#dde9ff"/><path d="M167.892 218.97a7.03 7.03 0 0 0 3.905-6.298v-11.72h-7.8v11.72a7.03 7.03 0 0 0 3.905 6.298z" class="O"/><circle fill="#fe7c7a" cx="142.272" cy="211.35" r="10.319"/><path d="M152 230.112c-2.347 2.598-3.645 5.975-3.64 9.476v22.963a14.1 14.1 0 0 0 3.64 9.476c5.286-1.134 9.25-5.83 9.25-11.456v-19.003c0-5.626-3.964-10.323-9.25-11.456z" fill="#c6ef9a"/><path d="M230 200.953a1.95 1.95 0 0 0-.572-1.38c-.366-.365-.863-.572-1.38-.572h-70.313a1.95 1.95 0 0 0-1.953 1.953v8.443h-1.394c-.937-5.842-6.013-10.32-12.115-10.32A12.29 12.29 0 0 0 130 211.349a12.29 12.29 0 0 0 12.272 12.272c6.102 0 11.176-4.477 12.115-10.32h1.394v9.917c0 1.08.875 1.954 1.953 1.954s1.953-.875 1.953-1.954v-3.14a8.93 8.93 0 0 0 5.078 1.577 8.97 8.97 0 0 0 7.03-3.401 8.97 8.97 0 0 0 14.063 0 8.97 8.97 0 0 0 14.062 0 8.97 8.97 0 0 0 14.063 0 8.97 8.97 0 0 0 7.032 3.401 8.93 8.93 0 0 0 5.078-1.578v12.516H192.1a1.95 1.95 0 0 0-1.953 1.953v42.97c0 1.078.875 1.953 1.953 1.953h33.985v7.812h-42.97v-52.734a1.95 1.95 0 0 0-1.953-1.953H167a1.95 1.95 0 0 0-1.953 1.953c0 1.08.874 1.953 1.953 1.953h12.228v50.78h-19.53v-9.765a1.95 1.95 0 0 0-1.953-1.953c-1.08 0-1.953.874-1.953 1.953v9.765h-4.297V274.1c6.617-.95 11.72-6.655 11.72-13.53v-19.003a13.69 13.69 0 0 0-13.673-13.672c-7.538 0-13.672 6.133-13.672 13.672v19.002c0 6.875 5.103 12.58 11.72 13.53v13.18h-12.437a1.95 1.95 0 0 0-1.953 1.953c0 1.08.874 1.953 1.953 1.953h92.904a1.95 1.95 0 0 0 1.38-.57 1.96 1.96 0 0 0 .573-1.38v-88.28zm-90.234 59.618v-19.003a9.78 9.78 0 0 1 9.765-9.766 9.78 9.78 0 0 1 9.766 9.766v19.002c0 4.716-3.36 8.662-7.813 9.57v-5.998l4.12-4.4c.493-.506.673-1.24.473-1.917s-.752-1.194-1.44-1.35-1.4.072-1.882.597l-1.27 1.355v-9.403a1.95 1.95 0 0 0-1.953-1.953c-1.08 0-1.953.874-1.953 1.953v4.044l-1-1.06c-.477-.5-1.2-.725-1.87-.567a1.95 1.95 0 0 0-.983 3.237l3.842 4.102v11.36c-4.452-.907-7.812-4.853-7.812-9.57zm2.506-40.856a8.38 8.38 0 0 1-8.366-8.366 8.38 8.38 0 0 1 8.366-8.366 8.38 8.38 0 0 1 8.366 8.366 8.38 8.38 0 0 1-8.366 8.366zm22.494-1.965c-2.803-.003-5.075-2.275-5.078-5.078v-9.766h10.156v9.766c0 2.8-2.278 5.078-5.078 5.078zm14.062 0c-2.803-.003-5.075-2.275-5.078-5.078v-9.766h10.156v9.766c0 2.8-2.278 5.078-5.078 5.078zm14.063 0c-2.803-.003-5.075-2.275-5.078-5.078v-9.766h10.156v9.766c0 2.8-2.278 5.078-5.078 5.078zm14.062 0c-2.803-.003-5.075-2.275-5.078-5.078v-9.766h10.156v9.766c0 2.8-2.278 5.078-5.078 5.078zm14.063 0c-2.804-.003-5.076-2.274-5.08-5.078v-9.766h10.157v9.766c0 2.8-2.278 5.078-5.078 5.078zm-26.954 57.813V236.5h32.032v39.063h-32.032zm-49.837-66.167V206.5a1.95 1.95 0 0 0-1.953-1.953c-1.08 0-1.953.874-1.953 1.953v2.886h-2.885a1.95 1.95 0 0 0-1.953 1.953c0 1.08.874 1.953 1.953 1.953h2.885v2.886a1.95 1.95 0 0 0 1.953 1.953c1.08 0 1.953-.874 1.953-1.953v-2.886h2.886a1.95 1.95 0 0 0 1.953-1.953c0-1.08-.874-1.953-1.953-1.953h-2.886zm32.078 53.875a1.97 1.97 0 0 0 .572-1.38 1.97 1.97 0 0 0-1.953-1.953 1.96 1.96 0 0 0-1.38.572 1.97 1.97 0 0 0-.572 1.38 1.97 1.97 0 0 0 .572 1.381c.363.364.867.573 1.38.573a1.97 1.97 0 0 0 1.382-.573zm42.9-15.443H208.32a1.95 1.95 0 0 0-1.953 1.953c0 1.08.874 1.953 1.953 1.953h10.873a1.95 1.95 0 0 0 1.953-1.953c0-1.08-.874-1.953-1.953-1.953zm-18.035 3.906a1.97 1.97 0 0 0 1.381-.572 1.96 1.96 0 0 0 0-2.762c-.367-.365-.863-.57-1.38-.572s-1.018.2-1.382.572a1.97 1.97 0 0 0-.572 1.381 1.97 1.97 0 0 0 1.953 1.953zm18.035 8.594H201.16a1.95 1.95 0 0 0-1.953 1.953c0 1.08.874 1.953 1.953 1.953h18.034a1.95 1.95 0 0 0 1.953-1.953c0-1.08-.874-1.953-1.953-1.953z" class="B"/><g fill="#ff8e8e"><path d="M254.553 53.762a11.4 11.4 0 0 1 10.945-8.191h.426l-3.574 15.14-7.797-6.95z"/><path d="M274.6 71.803l-5.685-.712c-4.052-11.154-14.746-19.122-27.3-19.122H220.15c-16.038 0-29.04 13-29.04 29.04 0 11.028 6.148 20.62 15.203 25.537v7.608c0 2.045 1.658 3.703 3.703 3.703h11.308c2.045 0 3.703-1.658 3.703-3.703v-4.107h16.377v4.107c0 2.045 1.658 3.703 3.703 3.703h11.307c2.045 0 3.703-1.658 3.703-3.703v-10.775c4.325-3.578 7.522-8.332 9.204-13.687l5.267-.66a3.73 3.73 0 0 0 3.266-3.7v-9.828a3.73 3.73 0 0 0-3.265-3.7z"/></g><g fill="#fdcf84"><circle cx="221.326" cy="37.554" r="6.238"/><circle cx="237.162" cy="57.037" r="6.238"/></g><path d="M274.832 69.87l-4.528-.567a31.14 31.14 0 0 0-5.812-9.18l3.33-14.103a1.95 1.95 0 0 0-1.896-2.397h-.433c-5.527 0-10.507 3.477-12.466 8.577a30.67 30.67 0 0 0-4.263-1.348 1.95 1.95 0 1 0-.897 3.794c4.874 1.148 9.332 3.63 12.877 7.165a1.95 1.95 0 0 0 .473.486 27.13 27.13 0 0 1 5.858 9.46 1.95 1.95 0 0 0 1.59 1.27l5.684.7a1.78 1.78 0 0 1 1.56 1.766v9.828c0 .896-.67 1.655-1.56 1.766l-5.267.66a1.95 1.95 0 0 0-1.619 1.352c-1.566 4.998-4.55 9.433-8.587 12.768a1.95 1.95 0 0 0-.706 1.501v10.775c0 .967-.786 1.753-1.753 1.753H245.11a1.76 1.76 0 0 1-1.753-1.753v-4.107a1.95 1.95 0 0 0-1.95-1.95H225.03a1.95 1.95 0 0 0-1.95 1.95v4.107c0 .967-.786 1.753-1.753 1.753H210.02c-.968-.001-1.752-.785-1.754-1.753v-7.608a1.95 1.95 0 0 0-1.02-1.713c-8.74-4.737-14.186-13.882-14.184-23.824 0-14.938 12.153-27.1 27.1-27.1h2.443a1.95 1.95 0 0 0 0-3.899h-2.443c-14.47 0-26.654 9.97-30.047 23.402h-1.43a4.78 4.78 0 0 1-4.775-4.776 4.78 4.78 0 0 1 4.775-4.776 1.95 1.95 0 0 0 0-3.898c-4.783 0-8.674 3.9-8.674 8.674s3.9 8.675 8.674 8.675h.708a30.99 30.99 0 0 0 14.983 30.36v6.473a5.66 5.66 0 0 0 5.652 5.652h11.308a5.66 5.66 0 0 0 5.652-5.652v-2.157h12.48v2.157a5.66 5.66 0 0 0 5.652 5.652h11.307a5.66 5.66 0 0 0 5.653-5.652v-9.876c3.943-3.46 6.94-7.866 8.712-12.804l4.052-.508a5.69 5.69 0 0 0 4.973-5.634v-9.828a5.69 5.69 0 0 0-4.973-5.634zm-11.428-22.112l-2.186 9.264a31.2 31.2 0 0 0-4.65-3.148 9.52 9.52 0 0 1 6.836-6.116zm-5.808 24.497a1.96 1.96 0 0 0 .572-1.378 1.97 1.97 0 0 0-.572-1.378 1.95 1.95 0 0 0-1.377-.57c-.517 0-1.016.208-1.38.57a1.95 1.95 0 0 0-.57 1.378 1.96 1.96 0 0 0 .57 1.378 1.97 1.97 0 0 0 1.38.572 1.92 1.92 0 0 0 1.377-.572zM237.162 31.37a1.95 1.95 0 0 0-1.95 1.95v7.73a1.95 1.95 0 1 0 3.9 0v-7.73a1.95 1.95 0 0 0-1.95-1.949zm0-3.174a1.97 1.97 0 0 0 1.949-1.949 1.97 1.97 0 0 0-.571-1.379c-.366-.364-.862-.57-1.378-.57a1.96 1.96 0 0 0-1.378.57 1.97 1.97 0 0 0-.572 1.38 1.96 1.96 0 0 0 .572 1.378c.362.362.865.57 1.378.57zm-15.836-.985a1.95 1.95 0 0 0 1.949-1.949V21.95a1.95 1.95 0 0 0-3.899 0v3.314a1.95 1.95 0 0 0 1.95 1.95zm-21.053 55.836a1.95 1.95 0 0 0 1.938-1.961v-.08a1.95 1.95 0 1 0-3.9 0v.104a1.95 1.95 0 0 0 1.95 1.937h.012zm8.54 16.628a1.95 1.95 0 0 0 2.678-.652 1.95 1.95 0 0 0-.651-2.678 18.07 18.07 0 0 1-7.448-8.922 1.95 1.95 0 0 0-2.517-1.123 1.95 1.95 0 0 0-1.123 2.517c1.742 4.518 4.927 8.335 9.06 10.857zm12.514-53.935a8.2 8.2 0 0 0 8.187-8.187 8.2 8.2 0 0 0-8.187-8.187 8.2 8.2 0 0 0-8.187 8.187 8.2 8.2 0 0 0 8.187 8.187zm0-12.476c2.367.003 4.286 1.922 4.288 4.3a4.29 4.29 0 0 1-4.288 4.288c-2.368.003-4.286-1.92-4.3-4.288a4.29 4.29 0 0 1 4.29-4.29zm8.866 28.06h-9.646a1.95 1.95 0 0 0 0 3.898h25.34a1.95 1.95 0 0 0 0-3.898h-1.754c.797-1.288 1.22-2.774 1.217-4.3a8.2 8.2 0 0 0-8.188-8.187 8.2 8.2 0 0 0-8.187 8.187c0 1.572.446 3.04 1.217 4.3zm6.97-8.577c2.367.002 4.286 1.92 4.3 4.288a4.29 4.29 0 0 1-4.29 4.29 4.29 4.29 0 0 1-4.288-4.29 4.29 4.29 0 0 1 4.288-4.288z" class="B"/><path d="M345.953 51.4v27.344c0 1.036.41 2.03 1.144 2.763s1.726 1.144 2.762 1.144h72.657c1.036 0 2.03-.412 2.762-1.144s1.144-1.726 1.144-2.763V51.39h-80.47z" fill="#fd3a4e"/><path d="M442.047 67.016V113.9c0 1.036-.41 2.03-1.144 2.762s-1.726 1.144-2.762 1.144h-71.485c-1.036 0-2.03-.41-2.762-1.144s-1.144-1.726-1.144-2.762V67.016c-.001-1.036.41-2.03 1.143-2.763s1.726-1.144 2.763-1.144h71.485c1.036 0 2.03.41 2.763 1.144s1.144 1.727 1.143 2.763z" fill="#feb756"/><circle cx="428.375" cy="76.781" r="5.859" class="L"/><path fill="#57555c" d="M345.953 39.672h80.47v11.72h-80.47z"/><g fill="#fd3a4e"><path d="M426.422 31.86v7.813h-80.47V31.86c0-1.036.41-2.03 1.144-2.762s1.726-1.144 2.762-1.144h72.656c1.036-.001 2.03.41 2.763 1.143s1.144 1.726 1.144 2.763z"/><circle cx="416.656" cy="76.781" r="5.859"/></g><path d="M374.47 72.875h20.117v7.813H374.47z" class="L"/><path d="M374.47 104.125c-1.08 0-1.954.875-1.954 1.954s.875 1.954 1.955 1.954c.698 0 1.343-.373 1.692-.977a1.95 1.95 0 0 0 0-1.954c-.35-.604-.994-.977-1.692-.977zm53.906-35.156a7.79 7.79 0 0 0-5.86 2.653c-1.48-1.686-3.615-2.653-5.86-2.653-4.308 0-7.812 3.504-7.812 7.812s3.504 7.813 7.812 7.813c2.244 0 4.38-.967 5.86-2.654 1.48 1.687 3.615 2.654 5.86 2.654 4.308 0 7.813-3.505 7.813-7.813s-3.505-7.812-7.813-7.812zm-11.72 11.718a3.91 3.91 0 0 1-3.906-3.906 3.91 3.91 0 0 1 3.906-3.906 3.91 3.91 0 0 1 3.906 3.906 3.91 3.91 0 0 1-3.906 3.907v-.001zm11.72 0a3.91 3.91 0 0 1-3.906-3.906 3.91 3.91 0 0 1 3.906-3.906 3.91 3.91 0 0 1 3.906 3.906 3.91 3.91 0 0 1-3.906 3.907v-.001zm9.764-19.53h-9.765V31.86a5.87 5.87 0 0 0-5.86-5.859H349.86A5.87 5.87 0 0 0 344 31.86v46.874a5.87 5.87 0 0 0 5.86 5.86h10.937V113.9a5.87 5.87 0 0 0 5.86 5.859h71.483a5.87 5.87 0 0 0 5.859-5.86V67.017a5.87 5.87 0 0 0-5.86-5.86zm-90.233-19.53h76.563v7.813h-76.564l.001-7.813zm1.953-11.72h72.657c1.077 0 1.953.876 1.953 1.953v5.86h-76.564v-5.86c0-1.077.876-1.953 1.953-1.953h.001zm0 50.782c-1.08-.001-1.952-.875-1.953-1.954v-25.4h76.563v7.812h-57.814a5.87 5.87 0 0 0-5.86 5.86v13.672H349.86zm90.234 33.202c-.001 1.078-.875 1.952-1.953 1.953h-71.485c-1.078-.001-1.952-.875-1.953-1.953V67.016c0-1.077.876-1.953 1.953-1.953h71.485c1.077 0 1.953.876 1.953 1.953V113.9zM374.47 82.64h20.117a1.95 1.95 0 0 0 1.953-1.953v-7.812a1.95 1.95 0 0 0-1.953-1.953H374.47a1.95 1.95 0 0 0-1.953 1.953v7.813c0 1.078.874 1.953 1.953 1.953zm1.953-7.812h16.2v3.906h-16.2v-3.906zm-1.953 21.485h8.398c1.08 0 1.953-.875 1.953-1.954s-.875-1.953-1.953-1.953h-8.397a1.95 1.95 0 0 0-1.953 1.953c0 1.08.874 1.953 1.953 1.953v.001zm14.258-1.953c0 1.078.874 1.953 1.953 1.953h7.812c1.08 0 1.953-.875 1.953-1.954s-.875-1.953-1.953-1.953h-7.812a1.95 1.95 0 0 0-1.953 1.953zm14.257 9.765h-20.117a1.95 1.95 0 0 0-1.953 1.953c0 1.08.874 1.953 1.953 1.953h20.117a1.95 1.95 0 0 0 1.953-1.953c0-1.08-.874-1.953-1.953-1.953zm11.72-11.72h-7.812a1.95 1.95 0 0 0-1.953 1.953c0 1.08.874 1.953 1.953 1.953h7.812a1.95 1.95 0 0 0 1.953-1.953c0-1.08-.874-1.953-1.953-1.953zm15.625 0h-7.812a1.95 1.95 0 0 0-1.953 1.953c0 1.08.874 1.953 1.953 1.953h7.812a1.95 1.95 0 0 0 1.953-1.953c0-1.08-.874-1.953-1.953-1.953z" class="B"/><path d="M100.54 78.222c-11.175 0-20.317 9.143-20.317 20.317 0 4.673 1.625 8.736 4.064 12.2H17.238c-3.454 0-6.095-2.64-6.095-6.095v-71.11H112.73v48.762c-3.454-2.438-7.72-4.064-12.2-4.064z" fill="#f2edda"/><path d="M68.03 53.84h8.127v-8.127H68.03v8.127zM27.397 94.476h8.127V86.35h-8.127v8.127zm0-20.317h8.127v-8.127h-8.127v8.127zm0-20.318h8.127v-8.127h-8.127v8.127zM68.03 94.476h8.127V86.35H68.03v8.127zm0-20.317h8.127v-8.127H68.03v8.127zm20.318 0h8.127v-8.127H88.35v8.127zm0-20.318h8.127v-8.127H88.35v8.127zM47.714 94.476h8.127V86.35h-8.127v8.127zm0-20.317h8.127v-8.127h-8.127v8.127zm0-20.318h8.127v-8.127h-8.127v8.127z" class="P"/><path d="M35.523 5.08v8.127c0 2.235-1.83 4.064-4.064 4.064-1.016 0-2.032-.406-2.845-1.22s-1.22-1.83-1.22-2.845V5.08c0-2.235 1.83-4.064 4.064-4.064 1.016 0 2.032.406 2.845 1.22s1.22 1.83 1.22 2.845zm60.952 0v8.127c0 2.235-1.83 4.064-4.064 4.064-1.22 0-2.235-.406-2.845-1.22-.813-.813-1.22-1.83-1.22-2.845V5.08c0-2.235 1.83-4.064 4.064-4.064 1.22 0 2.235.406 2.845 1.22.813.813 1.22 1.83 1.22 2.845zm-20.317 0v8.127c0 2.235-1.83 4.064-4.064 4.064-1.22 0-2.235-.406-2.845-1.22-.813-.813-1.22-1.83-1.22-2.845V5.08c0-2.235 1.83-4.064 4.064-4.064 1.22 0 2.235.406 2.845 1.22.813.813 1.22 1.83 1.22 2.845zm-20.318 0v8.127c0 2.235-1.83 4.064-4.064 4.064-1.22 0-2.235-.406-2.845-1.22-.812-.813-1.22-1.83-1.22-2.844V5.08c0-2.235 1.83-4.064 4.064-4.064 1.22 0 2.235.406 2.845 1.22.813.813 1.22 1.83 1.22 2.845z" class="D"/><path d="M120.857 25.397V98.54c0-6.705-3.25-12.597-8.127-16.254V33.523H11.142v71.11c0 3.454 2.64 6.095 6.095 6.095h67.048c3.657 4.876 9.55 8.127 16.254 8.127H11.142c-4.064 0-8.127-4.064-8.127-8.127V25.397h117.84z" fill="#ffd0a1"/><path d="M120.857 13.206v12.2H3.016v-12.2c0-4.064 4.064-8.127 8.127-8.127h16.254v8.127c0 1.016.406 2.032 1.22 2.845s1.83 1.22 2.845 1.22c2.235 0 4.064-1.83 4.064-4.064V5.08h12.2v8.127c0 1.016.406 2.032 1.22 2.845s1.83 1.22 2.845 1.22c2.235 0 4.064-1.83 4.064-4.064V5.08h12.2v8.127c0 1.016.406 2.032 1.22 2.845s1.83 1.22 2.845 1.22c2.235 0 4.064-1.83 4.064-4.064V5.08h12.2v8.127c0 1.016.406 2.032 1.22 2.845s1.83 1.22 2.845 1.22c2.235 0 4.064-1.83 4.064-4.064V5.08h16.254c4.063 0 8.126 4.064 8.126 8.127" class="J"/><path d="M112.73 82.285c4.876 3.657 8.127 9.55 8.127 16.254 0 11.175-9.143 20.317-20.317 20.317-6.705 0-12.597-3.25-16.254-8.127-2.64-3.454-4.064-7.72-4.064-12.2 0-11.175 9.143-20.317 20.317-20.317 4.47 0 8.737 1.625 12.19 4.063" class="D"/><path d="M100.54 119.873c-11.784 0-21.333-9.55-21.333-21.333s9.55-21.333 21.333-21.333 21.333 9.55 21.333 21.333-9.55 21.333-21.333 21.333zm0-40.635c-10.565 0-19.302 8.736-19.302 19.302s8.736 19.302 19.302 19.302 19.302-8.736 19.302-19.302-8.737-19.302-19.302-19.302zM78.2 119.873H11.143c-4.673 0-9.143-4.47-9.143-9.143V25.397c0-.6.406-1.016 1.016-1.016H112.73c.6 0 1.016.406 1.016 1.016s-.406 1.016-1.016 1.016H4.032v84.317c0 3.454 3.657 7.11 7.11 7.11H78.2c.6 0 1.016.406 1.016 1.016s-.406 1.016-1.016 1.016zm-4.064-8.127h-56.89c-3.86 0-7.11-3.25-7.11-7.11v-71.11c0-.6.406-1.016 1.016-1.016H112.73c.6 0 1.016.406 1.016 1.016v38.603c0 .6-.406 1.016-1.016 1.016s-1.016-.406-1.016-1.016V34.54H12.16v70.095c0 2.845 2.235 5.08 5.08 5.08h56.89c.6 0 1.016.406 1.016 1.016s-.406 1.016-1.016 1.016zm38.603-12.2h-12.2c-.6 0-1.016-.406-1.016-1.016v-8.127c0-.6.406-1.016 1.016-1.016s1.016.406 1.016 1.016v7.11h11.175c.6 0 1.016.406 1.016 1.016s-.406 1.016-1.016 1.016zm-40.635-4.063h-4.064c-.6 0-1.016-.406-1.016-1.016V86.35c0-.6.406-1.016 1.016-1.016h4.064c.6 0 1.016.406 1.016 1.016s-.406 1.016-1.016 1.016h-3.048v6.095h3.048c.6 0 1.016.406 1.016 1.016s-.406 1.016-1.016 1.016zm-16.254 0h-8.127c-.6 0-1.016-.406-1.016-1.016V86.35c0-.6.406-1.016 1.016-1.016h8.127c.6 0 1.016.406 1.016 1.016v8.127c0 .6-.406 1.016-1.016 1.016zm-7.11-2.032h6.095v-6.095H48.73v6.095zm-13.206 2.032h-8.127c-.6 0-1.016-.406-1.016-1.016V86.35c0-.6.406-1.016 1.016-1.016h8.127c.6 0 1.016.406 1.016 1.016v8.127c0 .6-.406 1.016-1.016 1.016zm-7.11-2.032h6.095v-6.095h-6.095v6.095zm92.445-16.254c-.6 0-1.016-.406-1.016-1.016V13.206c0-3.454-3.657-7.11-7.11-7.11h-8.127c-.6 0-1.016-.406-1.016-1.016s.406-1.016 1.016-1.016h8.127c4.673 0 9.143 4.47 9.143 9.143V76.2c0 .6-.406 1.016-1.016 1.016zM76.16 75.175h-8.127c-.6 0-1.016-.406-1.016-1.016v-8.127c0-.6.406-1.016 1.016-1.016h8.127c.6 0 1.016.406 1.016 1.016v8.127c0 .6-.406 1.016-1.016 1.016zm-7.11-2.032h6.095v-6.095h-6.095v6.095zM55.84 75.175h-8.127c-.6 0-1.016-.406-1.016-1.016v-8.127c0-.6.406-1.016 1.016-1.016h8.127c.6 0 1.016.406 1.016 1.016v8.127c0 .6-.406 1.016-1.016 1.016zm-7.11-2.032h6.095v-6.095H48.73v6.095zm-13.206 2.032h-8.127c-.6 0-1.016-.406-1.016-1.016v-8.127c0-.6.406-1.016 1.016-1.016h8.127c.6 0 1.016.406 1.016 1.016v8.127c0 .6-.406 1.016-1.016 1.016zm-7.11-2.032h6.095v-6.095h-6.095v6.095zm68.064-2.032c-.6 0-1.016-.406-1.016-1.016v-3.048h-6.095v3.048c0 .6-.406 1.016-1.016 1.016s-1.016-.406-1.016-1.016v-4.064c0-.6.406-1.016 1.016-1.016h8.127c.6 0 1.016.406 1.016 1.016v4.064c0 .6-.406 1.016-1.016 1.016zm0-16.254H88.35c-.6 0-1.016-.406-1.016-1.016v-8.127c0-.6.406-1.016 1.016-1.016h8.127c.6 0 1.016.406 1.016 1.016v8.127c0 .6-.406 1.016-1.016 1.016zm-7.11-2.032h6.095V46.73h-6.095v6.095zM76.16 54.857h-8.127c-.6 0-1.016-.406-1.016-1.016v-8.127c0-.6.406-1.016 1.016-1.016h8.127c.6 0 1.016.406 1.016 1.016v8.127c0 .6-.406 1.016-1.016 1.016zm-7.11-2.032h6.095V46.73h-6.095v6.095zM55.84 54.857h-8.127c-.6 0-1.016-.406-1.016-1.016v-8.127c0-.6.406-1.016 1.016-1.016h8.127c.6 0 1.016.406 1.016 1.016v8.127c0 .6-.406 1.016-1.016 1.016zm-7.11-2.032h6.095V46.73H48.73v6.095zm-13.206 2.032h-8.127c-.6 0-1.016-.406-1.016-1.016v-8.127c0-.6.406-1.016 1.016-1.016h8.127c.6 0 1.016.406 1.016 1.016v8.127c0 .6-.406 1.016-1.016 1.016zm-7.11-2.032h6.095V46.73h-6.095v6.095zm64-34.54c-2.845 0-5.08-2.235-5.08-5.08V5.08c0-2.844 2.235-5.08 5.08-5.08s5.08 2.235 5.08 5.08v8.127c0 2.845-2.235 5.08-5.08 5.08zm0-16.254c-1.625 0-3.048 1.422-3.048 3.048v8.127c0 1.625 1.422 3.048 3.048 3.048s3.048-1.422 3.048-3.048V5.08c0-1.625-1.422-3.048-3.048-3.048zM72.095 18.286c-2.845 0-5.08-2.235-5.08-5.08V5.08c0-2.844 2.235-5.08 5.08-5.08s5.08 2.235 5.08 5.08v8.127c0 2.845-2.235 5.08-5.08 5.08zm0-16.254c-1.625 0-3.048 1.422-3.048 3.048v8.127c0 1.625 1.422 3.048 3.048 3.048s3.048-1.422 3.048-3.048V5.08c0-1.625-1.422-3.048-3.048-3.048zM51.778 18.286c-2.845 0-5.08-2.235-5.08-5.08V5.08c0-2.844 2.235-5.08 5.08-5.08s5.08 2.235 5.08 5.08v8.127c0 2.845-2.235 5.08-5.08 5.08zm0-16.254c-1.625 0-3.048 1.422-3.048 3.048v8.127c0 1.625 1.422 3.048 3.048 3.048s3.048-1.422 3.048-3.048V5.08c0-1.625-1.422-3.048-3.048-3.048zM31.46 18.286c-2.845 0-5.08-2.235-5.08-5.08V5.08c0-2.844 2.235-5.08 5.08-5.08s5.08 2.235 5.08 5.08v8.127c0 2.845-2.235 5.08-5.08 5.08zm0-16.254c-1.625 0-3.048 1.422-3.048 3.048v8.127c0 1.625 1.422 3.048 3.048 3.048s3.048-1.422 3.048-3.048V5.08c0-1.625-1.422-3.048-3.048-3.048zM3.016 18.286c-.6 0-1.016-.406-1.016-1.016v-4.063c0-4.673 4.47-9.143 9.143-9.143h8.127c.6 0 1.016.406 1.016 1.016s-.406 1.016-1.016 1.016h-8.127c-3.454 0-7.11 3.657-7.11 7.11v4.064c0 .61-.406 1.016-1.016 1.016z" class="E"/><path d="M288.857 347.333v89.397c0 4.47-3.657 8.127-8.127 8.127H179.142c-4.47 0-8.127-3.657-8.127-8.127v-89.397h117.84z" class="D"/><path d="M191.333 444.857h20.317V424.54h-20.317v20.317zm56.89 0h20.317V424.54h-20.317v20.317zm-28.444 0h20.317V424.54h-20.317v20.317z" class="I"/><path d="M288.857 335.142v12.2h-117.84v-12.2c0-4.47 3.657-8.127 8.127-8.127H280.73c4.47 0 8.127 3.657 8.127 8.127z" class="P"/><path fill="#80d6fa" d="M268.54 404.222h-56.89l16.254-16.254 8.127 8.127 12.2-12.2z"/><path fill="#f2edda" d="M268.54 371.714v32.508l-20.318-20.317-12.2 12.2-8.127-8.127-16.254 16.254h-20.317v-32.508z"/><use xlink:href="#B" class="I"/><use xlink:href="#B" x="-12.19" class="J"/><path d="M209.62 335.142c1.22 0 2.032 1.016 2.032 2.032s-.813 2.032-2.032 2.032c-1.016 0-2.032-1.016-2.032-2.032s1.016-2.032 2.032-2.032" fill="#50dd8e"/><path d="M207.587 379.84c2.235 0 4.064 1.83 4.064 4.064s-1.83 4.064-4.064 4.064-4.064-1.83-4.064-4.064 1.83-4.064 4.064-4.064" class="I"/><path d="M280.73 445.873H179.143c-5.08 0-9.143-4.064-9.143-9.143v-81.27c0-.6.406-1.016 1.016-1.016s1.016.406 1.016 1.016v81.27c0 3.86 3.25 7.11 7.11 7.11H280.73c3.86 0 7.11-3.25 7.11-7.11V335.143c0-3.86-3.25-7.11-7.11-7.11H179.143c-3.86 0-7.11 3.25-7.11 7.11v11.175H280.73c.6 0 1.016.406 1.016 1.016s-.406 1.016-1.016 1.016H171.016c-.6 0-1.016-.406-1.016-1.016v-12.2c0-5.08 4.064-9.143 9.143-9.143H280.73c5.08 0 9.143 4.064 9.143 9.143V436.73c0 5.08-4.064 9.143-9.143 9.143zm-12.2-8.127c-.6 0-1.016-.406-1.016-1.016v-11.175h-18.286v11.175c0 .6-.406 1.016-1.016 1.016s-1.016-.406-1.016-1.016v-12.2c0-.6.406-1.016 1.016-1.016h20.317c.6 0 1.016.406 1.016 1.016v12.2c0 .6-.406 1.016-1.016 1.016zm-28.445 0c-.6 0-1.016-.406-1.016-1.016v-11.175h-18.286v11.175c0 .6-.406 1.016-1.016 1.016s-1.016-.406-1.016-1.016v-12.2c0-.6.406-1.016 1.016-1.016h20.318c.6 0 1.016.406 1.016 1.016v12.2c0 .6-.406 1.016-1.016 1.016zm-28.445 0c-.6 0-1.016-.406-1.016-1.016v-11.175H192.35v11.175c0 .6-.406 1.016-1.016 1.016s-1.016-.406-1.016-1.016v-12.2c0-.6.406-1.016 1.016-1.016h20.317c.6 0 1.016.406 1.016 1.016v12.2c0 .6-.406 1.016-1.016 1.016zm56.89-32.508h-44.7c-.6 0-1.016-.406-1.016-1.016s.406-1.016 1.016-1.016h43.683V372.73H192.35v30.476h18.895l16.05-16.05a.98.98 0 0 1 1.422 0l7.314 7.314 11.378-11.378a.98.98 0 0 1 1.422 0l12.2 12.2a.98.98 0 1 1-1.422 1.422l-11.378-11.378-11.378 11.378a.98.98 0 0 1-1.422 0l-7.314-7.314-15.44 15.442c-.203.203-.406.203-.813.203h-20.318c-.6 0-1.016-.406-1.016-1.016V371.51c0-.6.406-1.016 1.016-1.016h77.206c.6 0 1.016.406 1.016 1.016v32.508c-.203.813-.6 1.22-1.22 1.22zm-60.952-16.254c-2.845 0-5.08-2.235-5.08-5.08s2.235-5.08 5.08-5.08 5.08 2.235 5.08 5.08-2.235 5.08-5.08 5.08zm0-8.127c-1.625 0-3.048 1.422-3.048 3.048s1.422 3.048 3.048 3.048 3.048-1.422 3.048-3.048-1.422-3.048-3.048-3.048zm69.08-20.317h-8.127c-.6 0-1.016-.406-1.016-1.016s.406-1.016 1.016-1.016h8.127c.6 0 1.016.406 1.016 1.016s-.406 1.016-1.016 1.016zm-16.254 0h-8.127c-.6 0-1.016-.406-1.016-1.016s.406-1.016 1.016-1.016h8.127c.6 0 1.016.406 1.016 1.016s-.406 1.016-1.016 1.016zm-16.254 0h-8.127c-.6 0-1.016-.406-1.016-1.016s.406-1.016 1.016-1.016h8.127c.6 0 1.016.406 1.016 1.016s-.406 1.016-1.016 1.016zm-44.7 0h-16.254c-.6 0-1.016-.406-1.016-1.016s.406-1.016 1.016-1.016h16.254c.6 0 1.016.406 1.016 1.016s-.407 1.016-1.016 1.016zm10.16-20.318c-1.625 0-3.048-1.422-3.048-3.048s1.422-3.048 3.048-3.048 3.048 1.422 3.048 3.048-1.422 3.048-3.048 3.048zm0-4.063c-.6 0-1.016.406-1.016 1.016s.406 1.016 1.016 1.016 1.016-.406 1.016-1.016-.406-1.016-1.016-1.016zm-12.2 4.063c-1.625 0-3.048-1.422-3.048-3.048s1.422-3.048 3.048-3.048 3.048 1.422 3.048 3.048-1.422 3.048-3.048 3.048zm0-4.063c-.6 0-1.016.406-1.016 1.016s.406 1.016 1.016 1.016 1.016-.406 1.016-1.016-.406-1.016-1.016-1.016zm-12.2 4.063c-1.625 0-3.048-1.422-3.048-3.048s1.422-3.048 3.048-3.048 3.048 1.422 3.048 3.048-1.422 3.048-3.048 3.048zm0-4.063c-.6 0-1.016.406-1.016 1.016s.406 1.016 1.016 1.016 1.016-.406 1.016-1.016-.406-1.016-1.016-1.016z" class="E"/><path d="M411.936 381.873c2.235 0 4.064 1.83 4.064 4.064S414.17 390 411.936 390s-4.064-1.83-4.064-4.064a4.08 4.08 0 0 1 4.064-4.064" fill="#8affd8"/><path d="M470.857 385.936a56.26 56.26 0 0 1-3.454 19.505c-.203-.406-.6-1.016-.813-1.422s-.6-1.016-1.016-1.422-.6-.813-1.016-1.22l-3.25-3.25c1.016-3.86 1.422-7.924 1.422-12.2 0-28.038-22.755-50.794-50.794-50.794s-50.794 22.755-50.794 50.793c0 13.4 5.08 25.397 13.613 34.54H364.2c-7.11-9.752-11.175-21.537-11.175-34.54 0-32.508 26.413-58.92 58.92-58.92s58.92 26.413 58.92 58.92" class="P"/><path d="M467.403 405.644c2.235 3.86 3.454 8.127 3.454 12.8a26.36 26.36 0 0 1-26.413 26.413c-13.816 0-25.194-10.768-26.2-24.38v-2.032a26.36 26.36 0 0 1 26.413-26.413h4.267c.203 0 .406 0 .813.203h.813c.406 0 .6.203 1.016.203h.203c.203 0 .203 0 .406.203.203 0 .203 0 .406.203.406.203.813.203 1.22.406l1.83.6c.406.203.6.406 1.016.406.203 0 .203 0 .203.203l1.22.6c.203 0 .406.203.6.203s.406.203.406.203c.813.6 1.83 1.22 2.64 2.032.203.203.6.406.813.813l2.438 2.438c.406.406.813.813 1.016 1.422.406.406.6.813 1.016 1.422-.204 1.017.203 1.423.406 2.033z" class="I"/><path d="M462.73 385.936c0 4.064-.6 8.33-1.422 12.2-.203 0-.203-.203-.203-.203-.6-.406-1.016-.813-1.625-1.22-.203-.203-.6-.406-.813-.6s-.406-.203-.406-.203c-.203-.203-.406-.203-.6-.406l-1.22-.6s-.203 0-.203-.203c-.203 0-.406-.203-.6-.203s-.203-.203-.406-.203c-.6-.203-1.22-.406-1.83-.813-.406-.203-.813-.203-1.22-.406-.203 0-.203 0-.406-.203-.203 0-.203 0-.406-.203h-.203c-.406 0-.6-.203-1.016-.203-.203 0-.406 0-.406-.203h-.406c-.203 0-.406 0-.813-.203h-4.267a26.36 26.36 0 0 0-26.413 26.413v2.032h-43.48c-8.33-9.143-13.613-21.13-13.613-34.54 0-28.038 22.755-50.794 50.794-50.794s51.2 22.755 51.2 50.793m-46.73 0c0-2.235-1.83-4.064-4.064-4.064s-4.064 1.83-4.064 4.064S409.7 390 411.936 390s4.064-1.83 4.064-4.064" class="D"/><path d="M418.235 420.476h-65.22v24.38h73.143v-7.314c-4.47-4.47-7.518-10.362-7.924-17.067z" fill="#7ee1e6"/><path d="M444.445 445.873c-15.035 0-27.43-12.394-27.43-27.43s12.394-27.43 27.43-27.43 27.43 12.394 27.43 27.43-12.394 27.43-27.43 27.43zm0-52.825c-14.02 0-25.397 11.378-25.397 25.397s11.378 25.397 25.397 25.397 25.397-11.378 25.397-25.397-11.378-25.397-25.397-25.397zm-22.35 52.825h-24.38c-.6 0-1.016-.406-1.016-1.016s.406-1.016 1.016-1.016h24.38c.6 0 1.016.406 1.016 1.016s-.406 1.016-1.016 1.016zm-32.508 0c-.6 0-1.016-.406-1.016-1.016v-24.38c0-.6.406-1.016 1.016-1.016s1.016.406 1.016 1.016v24.38c0 .6-.406 1.016-1.016 1.016zm-8.127 0h-28.444c-.6 0-1.016-.406-1.016-1.016s.406-1.016 1.016-1.016h28.445c.6 0 1.016.406 1.016 1.016s-.407 1.016-1.016 1.016zm32.914-8.127h-16.66c-.6 0-1.016-.406-1.016-1.016s.406-1.016 1.016-1.016h16.66c.6 0 1.016.406 1.016 1.016s-.406 1.016-1.016 1.016zm-32.914 0h-28.444c-.6 0-1.016-.406-1.016-1.016s.406-1.016 1.016-1.016h28.445c.6 0 1.016.406 1.016 1.016s-.407 1.016-1.016 1.016zm62.984-4.063c-.6 0-1.016-.406-1.016-1.016v-1.016c-3.454-.406-6.095-3.454-6.095-7.11 0-.6.406-1.016 1.016-1.016s1.016.406 1.016 1.016c0 2.845 2.235 5.08 5.08 5.08s5.08-2.235 5.08-5.08-2.235-5.08-5.08-5.08c-3.86 0-7.11-3.25-7.11-7.11 0-3.657 2.64-6.502 6.095-7.11v-1.016c0-.6.406-1.016 1.016-1.016s1.016.406 1.016 1.016v1.016c3.454.406 6.095 3.454 6.095 7.11 0 .6-.406 1.016-1.016 1.016s-1.016-.406-1.016-1.016c0-2.845-2.235-5.08-5.08-5.08s-5.08 2.235-5.08 5.08 2.235 5.08 5.08 5.08c3.86 0 7.11 3.25 7.11 7.11 0 3.657-2.64 6.502-6.095 7.11v1.016c0 .6-.406 1.016-1.016 1.016zm-33.524-4.064h-13.206c-.6 0-1.016-.406-1.016-1.016s.406-1.016 1.016-1.016h13.206c.6 0 1.016.406 1.016 1.016s-.406 1.016-1.016 1.016zm-29.46 0h-28.444c-.6 0-1.016-.406-1.016-1.016s.406-1.016 1.016-1.016h28.445c.6 0 1.016.406 1.016 1.016s-.407 1.016-1.016 1.016zm28.445-8.127h-12.2c-.6 0-1.016-.406-1.016-1.016s.406-1.016 1.016-1.016h12.2c.6 0 1.016.406 1.016 1.016s-.406 1.016-1.016 1.016zm-28.445 0h-28.444c-.6 0-1.016-.406-1.016-1.016s.406-1.016 1.016-1.016h28.445c.6 0 1.016.406 1.016 1.016s-.407 1.016-1.016 1.016zm-22.146-7.924c-.406 0-.813-.203-.813-.6-4.267-8.33-6.502-17.473-6.502-27.022C352 352.82 378.82 326 411.936 326s59.936 26.82 59.936 59.936c0 2.64 0 6.298-.6 8.94-.203.6-.6.813-1.22.813-.6-.203-.813-.6-.813-1.22.6-2.438.6-6.095.6-8.33 0-32.102-26.006-58.108-57.905-58.108s-57.905 26.006-57.905 57.905c0 9.143 2.032 17.88 6.298 26.006.203.406 0 1.016-.406 1.422-.203.203-.406.203-.61.203zm9.346-.203c-.406 0-.6-.203-.813-.406-4.876-8.127-7.517-17.473-7.517-27.022 0-28.648 23.162-51.8 51.8-51.8s51.8 23.162 51.8 51.8c0 0 0 1.625-.203 2.845-.203.6-.6.813-1.22.813-.6-.203-1.016-.6-.813-1.22.203-1.016.203-2.438.203-2.438 0-27.632-22.35-49.98-49.778-49.98s-49.778 22.35-49.778 49.778c0 9.143 2.438 18.083 7.314 26.006.203.406.203 1.016-.406 1.422-.406.203-.406.203-.6.203zm6.095-5.08c-.406 0-.6-.203-.813-.6 0-.203-.203-.406-.203-.6 0-.406.203-.6.406-.813l1.83-1.016c.406-.203 1.016-.203 1.422.406 0 .203.203.406.203.6 0 .406-.203.6-.406.813l-1.83 1.016c-.406.203-.406.203-.6.203zm37.18-17.27a5.02 5.02 0 0 1-4.876-4.064h-23.568c-.6 0-1.016-.406-1.016-1.016s.406-1.016 1.016-1.016h23.568c.406-2.032 2.032-3.657 3.86-3.86v-37.8c0-.6.406-1.016 1.016-1.016s1.016.406 1.016 1.016v37.8c2.032.406 3.657 2.032 4.064 3.86h3.048c.6 0 1.016.406 1.016 1.016s-.406 1.016-1.016 1.016h-3.048c-.6 2.235-2.64 4.064-5.08 4.064zm0-8.127c-1.625 0-3.048 1.422-3.048 3.048s1.422 3.048 3.048 3.048 3.048-1.422 3.048-3.048-1.422-3.048-3.048-3.048zm-36.57 4.064h-6.095c-.6 0-1.016-.406-1.016-1.016s.406-1.016 1.016-1.016h6.095c.6 0 1.016.406 1.016 1.016s-.406 1.016-1.016 1.016zm72.127-20.317c-.406 0-.6-.203-.813-.6 0-.203-.203-.406-.203-.6 0-.406.203-.6.6-.813l1.83-1.016c.406-.203 1.016-.203 1.422.406 0 .203.203.406.203.6 0 .406-.203.6-.6.813l-1.83 1.016c-.406.203-.6.203-.6.203zm-70.908-.6c-.203 0-.406 0-.406-.203l-1.83-1.016c-.406-.203-.6-.6-.6-.813s0-.406.203-.6c.203-.406.813-.6 1.422-.406l1.83 1.016c.406.203.6.6.6.813s0 .406-.203.6c-.203.6-.61.6-1.016.6zm56.28-14.425c-.203 0-.406 0-.6-.203-.406-.203-.6-.6-.6-.813s0-.406.203-.6l1.016-1.83c.203-.406.813-.6 1.422-.406.406.203.6.6.6.813s0 .406-.203.6l-1.016 1.83c-.203.406-.6.6-.813.6zm-41.245-.203c-.406 0-.6-.203-.813-.406l-1.016-1.83c0-.203-.203-.406-.203-.6 0-.406.203-.6.406-.813.406-.203 1.016-.203 1.422.406l1.016 1.83c0 .203.203.406.203.6 0 .406-.203.6-.406.813h-.6z" class="E"/><path d="M661.134 241.5H623.14c-2.458 0-4.47-2.01-4.47-4.47v-37.994c0-2.458 2.01-4.47 4.47-4.47h55.873c2.458 0 4.47 2.01 4.47 4.47v37.994c0 2.458-2.01 4.47-4.47 4.47h-4.47v13.4l-13.4-13.4z" class="D"/><path d="M674.543 255.47c-.112 0-.335-.112-.447-.112l-15.644-15.644a.54.54 0 1 1 .782-.782l14.64 14.64V241.5c0-.335.224-.56.56-.56h4.47c2.123 0 3.91-1.788 3.91-3.91v-37.994c0-2.123-1.788-3.91-3.91-3.91H623.03c-2.123 0-3.91 1.788-3.91 3.91v37.994c0 2.123 1.788 3.91 3.91 3.91h32.406c.335 0 .56.224.56.56s-.224.56-.56.56H623.03c-2.794 0-5.03-2.235-5.03-5.03v-37.994c0-2.794 2.235-5.03 5.03-5.03h55.873c2.794 0 5.03 2.235 5.03 5.03v37.994c0 2.794-2.235 5.03-5.03 5.03H675v12.85c0 .224-.112.447-.335.56h-.112zm-4.47-26.82h-13.4c-.335 0-.56-.224-.56-.56s.224-.56.56-.56h13.4c.335 0 .56.224.56.56s-.224.56-.56.56zm-17.88 0H632.08c-.335 0-.56-.224-.56-.56s.224-.56.56-.56h20.114c.335 0 .56.224.56.56s-.224.56-.56.56zm15.644-6.705h-13.4c-.335 0-.56-.224-.56-.56s.224-.56.56-.56h13.4c.335 0 .56.224.56.56s-.223.56-.56.56zm-17.88 0h-17.88c-.335 0-.56-.224-.56-.56s.224-.56.56-.56h17.88c.335 0 .56.224.56.56s-.224.56-.56.56zm20.114-6.705h-6.705c-.335 0-.56-.224-.56-.56s.224-.56.56-.56h6.705c.335 0 .56.224.56.56s-.224.56-.56.56zm-11.175 0h-8.94c-.335 0-.56-.224-.56-.56s.224-.56.56-.56h8.94c.335 0 .56.224.56.56s-.224.56-.56.56zm-13.4 0h-13.4c-.335 0-.56-.224-.56-.56s.224-.56.56-.56h13.4c.335 0 .56.224.56.56s-.224.56-.56.56zm22.35-6.705H645.5c-.335 0-.56-.224-.56-.56s.224-.56.56-.56h22.35c.335 0 .56.224.56.56s-.224.56-.56.56zm-26.82 0h-8.94c-.335 0-.56-.224-.56-.56s.224-.56.56-.56h8.94c.335 0 .56.224.56.56s-.224.56-.56.56z" class="E"/></g></g><defs ><path id="B" d="M197.428 335.142c1.016 0 2.032 1.016 2.032 2.032s-1.016 2.032-2.032 2.032-2.032-1.016-2.032-2.032 1.016-2.032 2.032-2.032"/></defs></svg>
